<svg width="50" height="51" viewBox="0 0 50 51" fill="none" xmlns="http://www.w3.org/2000/svg">
<path d="M17.7083 29.6667H18.5639C18.6743 29.6667 18.7716 29.5943 18.8034 29.4885L21.6933 19.8553C21.7388 19.7038 21.9573 19.7166 21.9847 19.8723L24.8775 36.2647C24.9056 36.4241 25.1315 36.4321 25.1708 36.275L27.0359 28.8144C27.0637 28.7031 27.1637 28.625 27.2784 28.625H32.2916" stroke="#03A300" stroke-width="1.5" stroke-linecap="round"/>
<path d="M18.7501 9.35417C18.7501 9.91586 18.7501 10.1967 18.8061 10.4284C18.9823 11.1571 19.5513 11.7261 20.28 11.9023C20.5117 11.9583 20.7926 11.9583 21.3542 11.9583H28.6459C29.2076 11.9583 29.4885 11.9583 29.7202 11.9023C30.4489 11.7261 31.0178 11.1571 31.1941 10.4284C31.2501 10.1967 31.2501 9.91586 31.2501 9.35417M18.7501 9.35417C18.7501 8.79247 18.7501 8.51163 18.8061 8.27993C18.9823 7.55121 19.5513 6.98224 20.28 6.80603C20.5117 6.75 20.7926 6.75 21.3542 6.75H28.6459C29.2076 6.75 29.4885 6.75 29.7202 6.80603C30.4489 6.98224 31.0178 7.55121 31.1941 8.27993C31.2501 8.51163 31.2501 8.79247 31.2501 9.35417M18.7501 9.35417H17.5417C15.6561 9.35417 14.7133 9.35417 14.1275 9.93995C13.5417 10.5257 13.5417 11.4685 13.5417 13.3542V38.2083C13.5417 40.5654 13.5417 41.7439 14.274 42.4761C15.0062 43.2083 16.1847 43.2083 18.5417 43.2083H31.4584C33.8154 43.2083 34.9939 43.2083 35.7262 42.4761C36.4584 41.7439 36.4584 40.5654 36.4584 38.2083V13.3542C36.4584 11.4685 36.4584 10.5257 35.8726 9.93995C35.2868 9.35417 34.344 9.35417 32.4584 9.35417H31.2501" stroke="#03A300" stroke-width="1.5"/>
</svg>
