<svg width="59" height="59" viewBox="0 0 59 59" fill="none" xmlns="http://www.w3.org/2000/svg">
<circle cx="29.5" cy="29.5" r="29.5" fill="#338038"/>
<path fill-rule="evenodd" clip-rule="evenodd" d="M28.7773 11.1461C28.1909 11.3762 28.0945 12.2668 28.6363 12.5414C29.4304 12.9571 30.2023 12.0442 29.6159 11.3911C29.4081 11.161 29.0148 11.0496 28.7773 11.1461ZM24.918 11.6582C19.5891 13.0683 15.2844 17.4992 13.9707 22.932C13.8297 23.4961 13.748 23.7039 13.6219 23.7855C13.2656 24.023 12.9539 24.3347 12.7832 24.6316C12.568 25.0027 10.2895 30.6507 10.141 31.1703C10.0742 31.4152 10.0371 31.9199 10.0445 32.6918V33.8421L10.9129 36.9222C11.4398 38.7851 11.7812 40.1285 11.7812 40.3363C11.7812 40.5441 11.4473 41.8355 10.8906 43.7652C10.4008 45.4648 10 46.9789 10 47.1273C10 47.4761 10.0965 47.6543 10.3711 47.7953C10.6754 47.9511 17.4367 47.966 17.8152 47.8027C18.075 47.6988 18.0898 47.6765 18.6316 46.3035C18.9879 45.4054 19.4035 44.7226 20.0641 43.973C20.9027 43.023 21.4742 41.9543 21.6598 41.0043C21.7117 40.7371 21.7785 40.4996 21.8008 40.4625C21.8305 40.4328 22.1645 40.5589 22.5504 40.7371C23.8863 41.3679 25.5859 41.8504 27.1816 42.0433C28.0352 42.1472 30.0391 42.1472 30.8926 42.0433C32.5031 41.8504 34.1879 41.3754 35.5016 40.7519C35.9691 40.5293 36.2141 40.4476 36.2289 40.507C36.2437 40.5589 36.2957 40.7964 36.3477 41.0414C36.5332 41.9691 37.1121 43.0453 37.9359 43.973C38.5965 44.7226 39.0121 45.4054 39.3684 46.3035C39.9102 47.6765 39.925 47.6988 40.1848 47.8027C40.5633 47.966 47.3246 47.9511 47.6289 47.7953C47.9035 47.6543 48 47.4761 48 47.1273C48 46.9789 47.5992 45.4648 47.1094 43.7578C46.5602 41.8504 46.2188 40.5367 46.2188 40.3289C46.2188 40.1285 46.5602 38.7777 47.0871 36.9222L47.9555 33.8421V32.6546C47.9629 31.7121 47.9332 31.3781 47.8293 31.0367C47.5621 30.1906 45.3281 24.78 45.1203 24.4906C45.009 24.3273 44.7789 24.0972 44.6156 23.9711C44.3336 23.7558 44.3113 23.7113 44.1109 22.8949C43.0645 18.5605 40.0215 14.7531 36.0063 12.7418C34.6555 12.0664 32.6293 11.4132 32.1246 11.4949C31.7461 11.5543 31.5234 11.8289 31.5234 12.2519C31.5234 12.6675 31.7312 12.905 32.1988 13.0238C33.8391 13.432 35.843 14.3375 37.0379 15.1984C39.0195 16.6308 40.4371 18.2711 41.491 20.3714C41.966 21.314 42.582 22.932 42.582 23.2363C42.582 23.2882 42.493 23.355 42.3816 23.3847C40.9937 23.6742 40.1328 24.7504 40.1328 26.1679C40.1328 26.7543 40.1477 26.8062 40.9566 28.8547C41.1491 29.3437 41.3295 29.8006 41.4745 30.1677L41.4751 30.1694C41.6708 30.6648 41.8016 30.9963 41.8102 31.0218C41.8324 31.0664 41.5207 31.0961 40.9715 31.0961C40.1773 31.0961 40.0586 31.1183 39.6727 31.2964C39.2125 31.5117 38.6559 31.9793 38.4332 32.3504C38.2922 32.5804 36.6965 37.1968 36.4516 38.08L36.4498 38.0863C36.3254 38.5329 36.3229 38.5416 35.7984 38.8445C31.7164 41.175 26.2316 41.1527 22.1645 38.7777C21.734 38.5254 21.6375 38.4289 21.6004 38.2359C21.5707 38.1023 21.1402 36.7886 20.643 35.3043C20.0418 33.5527 19.6484 32.4988 19.5074 32.291C18.8691 31.3632 17.7262 30.866 16.6723 31.0589C16.4199 31.1035 16.2047 31.1332 16.1898 31.1183C16.1824 31.1035 16.5535 30.1238 17.0211 28.9437L17.8746 26.7914L17.8449 26.0492C17.8227 25.4183 17.793 25.2476 17.6223 24.9136C17.2289 24.164 16.6055 23.6371 15.8707 23.4441C15.559 23.3625 15.5293 23.3402 15.5441 23.1546C15.5961 22.4793 16.4719 20.416 17.2215 19.2211C18.2457 17.5734 19.8711 15.9332 21.541 14.8644C22.6246 14.1668 24.2574 13.4468 25.4746 13.1277C26.15 12.957 26.3059 12.8457 26.4172 12.4968C26.5285 12.1035 26.3578 11.725 25.9941 11.5691C25.9732 11.5606 25.9541 11.5527 25.9363 11.5453C25.8691 11.5175 25.8215 11.4978 25.772 11.488C25.6517 11.4643 25.52 11.4991 25.0684 11.6185C25.0218 11.6308 24.9717 11.644 24.918 11.6582ZM15.8262 25.1511C15.9672 25.2625 16.1379 25.4554 16.2047 25.5816C16.4422 26.0343 16.3754 26.2941 15.3957 28.7656C14.8836 30.057 14.4086 31.3187 14.3418 31.5711C14.1711 32.239 14.1266 33.1074 14.223 33.7902C14.3047 34.3543 15.2621 37.7461 15.4254 38.0429C15.6332 38.4437 16.316 38.4882 16.65 38.132C16.9172 37.8425 16.8801 37.5234 16.3457 35.7273C16.0785 34.8367 15.8633 33.9906 15.8633 33.8421C15.8633 33.4933 16.1008 33.0406 16.3902 32.8402C16.9023 32.4691 17.5406 32.5285 18.0082 32.9812C18.2605 33.2261 18.357 33.4488 19.077 35.6011C20.0566 38.4882 20.168 38.9113 20.168 39.7351C20.168 41.1156 19.8785 41.7316 18.3941 43.5129C17.8078 44.2179 17.4887 44.7894 17.1621 45.68L16.9395 46.3109L14.3566 46.3332L11.7738 46.348L11.8184 46.1922C11.848 46.1031 12.2043 44.8785 12.6125 43.4609L13.3547 40.8929L13.3176 40.1879C13.2879 39.5718 13.184 39.1043 12.4195 36.4101C11.6105 33.5082 11.5586 33.2929 11.5586 32.6621C11.5586 32.291 11.6031 31.816 11.6625 31.6007C11.8035 31.0664 14.0004 25.6484 14.1785 25.3886C14.5273 24.8914 15.3289 24.7726 15.8262 25.1511ZM43.3687 25.0398C43.5395 25.114 43.7398 25.2773 43.8215 25.3886C44.0293 25.7004 46.2559 31.2371 46.3672 31.7343C46.4191 31.9793 46.4488 32.432 46.4266 32.8476C46.3969 33.4562 46.2855 33.9312 45.5508 36.514C44.816 39.1191 44.7121 39.5718 44.6824 40.1879L44.6453 40.8929L45.3875 43.4609C45.7957 44.8785 46.152 46.1031 46.1816 46.1922L46.2262 46.348L43.6434 46.3332L41.0605 46.3109L40.8379 45.68C40.5113 44.7894 40.1922 44.2179 39.6059 43.5129C38.3961 42.0582 38.1066 41.5757 37.8617 40.6332C37.7281 40.1211 37.7504 39.2527 37.9137 38.6664C38.1957 37.6199 39.7395 33.2336 39.8879 33.0629C40.118 32.7808 40.5262 32.6027 40.927 32.6027C41.5504 32.6027 42.1367 33.2039 42.1367 33.8496C42.1367 33.998 41.9215 34.8515 41.6543 35.7421C41.1199 37.5382 41.0828 37.8425 41.35 38.132C41.684 38.4882 42.3668 38.4437 42.5746 38.0504C42.7379 37.7386 43.6879 34.3691 43.777 33.805C43.8809 33.0629 43.8289 32.1871 43.6285 31.4671C43.5469 31.1777 43.0719 29.9308 42.5746 28.6839C41.6246 26.2941 41.5578 26.0343 41.7953 25.5816C42.0996 24.9953 42.7676 24.7652 43.3687 25.0398ZM26.0387 18.4863C26.1203 18.3824 26.2984 18.2636 26.4246 18.2265C26.7883 18.1226 31.1375 18.1375 31.4492 18.2414C31.9465 18.4121 31.9688 18.5382 31.9688 21.1656V23.4886H34.3512C35.8355 23.4886 36.7855 23.5183 36.8746 23.5628C37.216 23.7484 37.2383 23.9191 37.2383 26.4945C37.2383 29.0105 37.2234 29.1144 36.9117 29.3668C36.7707 29.4855 36.5184 29.5004 34.366 29.5004H31.9688V31.7937C31.9688 33.2336 31.9391 34.1613 31.8871 34.3097C31.7313 34.7699 31.7164 34.7699 28.8961 34.7699H26.3355L26.1277 34.5918L25.9199 34.4136L25.8977 31.957L25.8754 29.5004H23.4633H21.0437L20.8285 29.2851L20.6133 29.0699V26.4945V23.9191L20.8285 23.7039L21.0437 23.4886H23.4633H25.8828V21.0839C25.8828 18.7757 25.8902 18.6793 26.0387 18.4863ZM30.4102 24.5796V22.1453V19.7035H28.9258H27.4414V22.0562C27.4414 24.6539 27.434 24.6984 26.9961 24.9136C26.766 25.0324 26.4766 25.0472 24.4578 25.0472H22.1719V26.4945V27.9343L24.584 27.9566L26.9961 27.9789L27.1965 28.1867L27.4043 28.3871L27.4266 30.8363L27.4488 33.2855H28.9258H30.4102V30.8511C30.4102 28.4836 30.4176 28.4093 30.566 28.2461C30.6477 28.157 30.8035 28.0531 30.9074 28.0086C31.0039 27.9714 32.1246 27.9418 33.3863 27.9418H35.6797V26.4945V25.0472H33.4605C32.2434 25.0472 31.1449 25.025 31.0113 25.0027C30.8852 24.973 30.6996 24.8691 30.5957 24.7652L30.4102 24.5796Z" fill="white"/>
</svg>
