<?xml version="1.0" encoding="UTF-8"?>
<svg version="1.1" xmlns="http://www.w3.org/2000/svg" width="1200" height="600">
<path d="M0 0 C396 0 792 0 1200 0 C1200 198 1200 396 1200 600 C804 600 408 600 0 600 C0 402 0 204 0 0 Z " fill="#C8102E" transform="translate(0,0)"/>
<path d="M0 0 C178.2 0 356.4 0 540 0 C540 79.2 540 158.4 540 240 C361.8 240 183.6 240 0 240 C0 160.8 0 81.6 0 0 Z " fill="#FEFEFE" transform="translate(660,360)"/>
<path d="M0 0 C178.2 0 356.4 0 540 0 C540 79.2 540 158.4 540 240 C361.8 240 183.6 240 0 240 C0 160.8 0 81.6 0 0 Z " fill="#FEFEFE" transform="translate(0,360)"/>
<path d="M0 0 C178.2 0 356.4 0 540 0 C540 79.2 540 158.4 540 240 C361.8 240 183.6 240 0 240 C0 160.8 0 81.6 0 0 Z " fill="#FEFEFE" transform="translate(660,0)"/>
<path d="M0 0 C178.2 0 356.4 0 540 0 C540 79.2 540 158.4 540 240 C361.8 240 183.6 240 0 240 C0 160.8 0 81.6 0 0 Z " fill="#FEFEFE" transform="translate(0,0)"/>
<path d="M0 0 C11.52932126 5.46125744 23.01950488 10.93637411 34.42033386 16.65003967 C35.86382784 17.37156772 37.30741 18.09291936 38.7510708 18.81411356 C42.65398165 20.76446781 46.5556637 22.71726839 50.45712125 24.67052782 C54.68854058 26.78842079 58.9211356 28.90396185 63.15357971 31.01980591 C70.46526066 34.67538571 77.77621474 38.33241565 85.08666039 41.99046516 C95.65600717 47.27922266 106.22647341 52.5657395 116.79720382 57.85173088 C133.95241935 66.43042975 151.10674308 75.01091033 168.26049805 83.5925293 C184.91204428 91.92290027 201.5640154 100.25242095 218.21655273 108.58081055 C219.24506146 109.09519627 220.27357018 109.60958199 221.33324584 110.13955516 C226.49358553 112.72037759 231.65393352 115.30118342 236.81428564 117.88198102 C279.54414319 139.25208314 322.27255013 160.62508439 365 182 C365 182.33 365 182.66 365 183 C244.55 183 124.1 183 0 183 C0 122.61 0 62.22 0 0 Z " fill="#012169" transform="translate(700,417)"/>
<path d="M0 0 C0 60.39 0 120.78 0 183 C-120.45 183 -240.9 183 -365 183 C-361.6189473 180.46421047 -358.63698114 178.69367283 -354.88834858 176.8197298 C-353.97015312 176.35867661 -353.97015312 176.35867661 -353.03340825 175.88830921 C-350.97706008 174.85698125 -348.91790385 173.83139111 -346.85871887 172.80574036 C-345.37088086 172.06102737 -343.88321806 171.31596424 -342.39571589 170.57058066 C-338.30391379 168.52146853 -334.20962634 166.47736657 -330.11492026 164.43406498 C-325.70108387 162.23043198 -321.28955142 160.02219557 -316.87773132 157.81452942 C-308.23413816 153.49021026 -299.5884124 149.1701716 -290.94196156 144.85156969 C-280.88168568 139.82661846 -270.82349766 134.79749479 -260.7653931 129.76819917 C-242.82676657 120.79863551 -224.88620934 111.8329404 -206.94458008 102.86938477 C-189.51636986 94.16232732 -172.08956619 85.45246305 -154.66430664 76.73950195 C-153.59060453 76.20263092 -152.51690242 75.66575989 -151.41066388 75.11262003 C-150.33885578 74.57669581 -149.26704769 74.04077158 -148.16276056 73.48860723 C-128.34733944 63.58055219 -108.53060499 53.67512649 -88.7132546 43.77093086 C-81.69320116 40.26241524 -74.67354074 36.75311405 -67.65400124 33.24357033 C-59.10826064 28.97104028 -50.56176954 24.70001574 -42.01432375 20.43089799 C-37.64922271 18.25066364 -33.28444528 16.06978787 -28.92052078 13.8871994 C-24.9325921 11.89269053 -20.94375563 9.90001007 -16.95415779 7.90884217 C-15.50439103 7.18487097 -14.05496688 6.46021323 -12.60590503 5.73483215 C-10.64955543 4.75563595 -8.69201411 3.77886619 -6.734128 2.80274677 C-5.64308146 2.25757572 -4.55203492 1.71240466 -3.42792636 1.15071326 C-1 0 -1 0 0 0 Z " fill="#012169" transform="translate(500,417)"/>
<path d="M0 0 C120.45 0 240.9 0 365 0 C361.6189473 2.53578953 358.63698114 4.30632717 354.88834858 6.1802702 C353.97015312 6.64132339 353.97015312 6.64132339 353.03340825 7.11169079 C350.97706008 8.14301875 348.91790385 9.16860889 346.85871887 10.19425964 C345.37088086 10.93897263 343.88321806 11.68403576 342.39571589 12.42941934 C338.30391379 14.47853147 334.20962634 16.52263343 330.11492026 18.56593502 C325.70108387 20.76956802 321.28955142 22.97780443 316.87773132 25.18547058 C308.23413816 29.50978974 299.5884124 33.8298284 290.94196156 38.14843031 C280.88168568 43.17338154 270.82349766 48.20250521 260.7653931 53.23180083 C242.82676657 62.20136449 224.88620934 71.1670596 206.94458008 80.13061523 C189.51636986 88.83767268 172.08956619 97.54753695 154.66430664 106.26049805 C153.59060453 106.79736908 152.51690242 107.33424011 151.41066388 107.88737997 C150.33885578 108.42330419 149.26704769 108.95922842 148.16276056 109.51139277 C128.34733944 119.41944781 108.53060499 129.32487351 88.7132546 139.22906914 C81.69320116 142.73758476 74.67354074 146.24688595 67.65400124 149.75642967 C59.10826064 154.02895972 50.56176954 158.29998426 42.01432375 162.56910201 C37.64922271 164.74933636 33.28444528 166.93021213 28.92052078 169.1128006 C24.9325921 171.10730947 20.94375563 173.09998993 16.95415779 175.09115783 C15.50439103 175.81512903 14.05496688 176.53978677 12.60590503 177.26516785 C10.64955543 178.24436405 8.69201411 179.22113381 6.734128 180.19725323 C5.64308146 180.74242428 4.55203492 181.28759534 3.42792636 181.84928674 C1 183 1 183 0 183 C0 122.61 0 62.22 0 0 Z " fill="#012169" transform="translate(700,0)"/>
<path d="M0 0 C120.45 0 240.9 0 365 0 C365 60.39 365 120.78 365 183 C353.47067874 177.53874256 341.98049512 172.06362589 330.57966614 166.34996033 C329.13617216 165.62843228 327.69259 164.90708064 326.2489292 164.18588644 C322.34601835 162.23553219 318.4443363 160.28273161 314.54287875 158.32947218 C310.31145942 156.21157921 306.0788644 154.09603815 301.84642029 151.98019409 C294.53473934 148.32461429 287.22378526 144.66758435 279.91333961 141.00953484 C269.34399283 135.72077734 258.77352659 130.4342605 248.20279618 125.14826912 C231.04758065 116.56957025 213.89325692 107.98908967 196.73950195 99.4074707 C180.08795572 91.07709973 163.4359846 82.74757905 146.78344727 74.41918945 C145.75493854 73.90480373 144.72642982 73.39041801 143.66675416 72.86044484 C138.50641447 70.27962241 133.34606648 67.69881658 128.18571436 65.11801898 C85.45585681 43.74791686 42.72744987 22.37491561 0 1 C0 0.67 0 0.34 0 0 Z " fill="#012169" transform="translate(135,0)"/>
<path d="M0 0 C-3.26119933 2.61809211 -6.69112385 4.51621296 -10.39683056 6.4457655 C-11.04000108 6.78183664 -11.6831716 7.11790779 -12.34583214 7.46416292 C-14.5086487 8.59295101 -16.67420548 9.71636978 -18.83988953 10.83964539 C-20.40519923 11.65459785 -21.97038981 12.46977916 -23.53547126 13.2851699 C-27.84472187 15.52857244 -32.15675837 17.76657042 -36.46954525 20.00316584 C-39.22904356 21.43458582 -41.98784995 22.86733139 -44.74648857 24.30040741 C-79.87083104 42.54359984 -115.09874533 60.58350263 -150.36986981 78.54105948 C-156.16317043 81.490685 -161.95572049 84.4417816 -167.74780273 87.39379883 C-168.90049732 87.98125343 -170.05319191 88.56870804 -171.24081663 89.1739643 C-189.74113507 98.60710544 -208.17302612 108.16673206 -226.58127394 117.7780719 C-245.58257746 127.69541863 -264.6528277 137.46957454 -283.78982097 147.12251884 C-294.49228209 152.5257286 -305.15693429 157.98372451 -315.74509239 163.60809898 C-374.01904319 194.51009197 -420.88460546 206.97683092 -487 200 C-484.08040699 197.68224236 -481.13705671 195.94409507 -477.80482101 194.27936268 C-476.74777175 193.748847 -475.69072248 193.21833131 -474.60164142 192.6717394 C-473.44135842 192.09451074 -472.28107542 191.51728208 -471.08563232 190.92256165 C-469.83947296 190.29904584 -468.59348946 189.67517844 -467.34766698 189.05098981 C-463.923307 187.33657234 -460.49647051 185.62715788 -457.06921339 183.91854107 C-453.37288171 182.07469095 -449.67886087 180.22622202 -445.98455811 178.37831116 C-439.57986543 175.17544009 -433.17371253 171.97550575 -426.76656342 168.77755165 C-417.48546343 164.14513668 -408.20658161 159.50829322 -398.92823139 154.87037363 C-383.85182881 147.33436234 -368.77364328 139.80192559 -353.69433594 132.27172852 C-339.08533677 124.97638094 -324.47716174 117.67938742 -309.87011719 110.38012695 C-308.97216788 109.93141502 -308.07421857 109.48270309 -307.14905867 109.02039383 C-302.64202761 106.76818389 -298.13501323 104.51594056 -293.62800741 102.2636801 C-284.84269225 97.87345558 -276.05726683 93.48345173 -267.27178955 89.09355164 C-266.42138333 88.66862325 -265.57097711 88.24369487 -264.694801 87.80588987 C-243.89372943 77.41216577 -223.09114769 67.02146511 -202.28806689 56.63176314 C-200.93498369 55.95598862 -199.58190405 55.28020699 -198.22882816 54.60441782 C-195.07620457 53.02985104 -191.92354286 51.45536073 -188.77077913 49.88107455 C-183.80589055 47.40168259 -178.84134027 44.92165107 -173.88011932 42.43492699 C-172.77169674 41.8795863 -172.77169674 41.8795863 -171.64088178 41.31302661 C-169.82261715 40.40168986 -168.00480224 39.48945598 -166.18704605 38.57710552 C-162.65036102 36.82698161 -159.09243673 35.12896173 -155.52734375 33.4375 C-149.70211158 30.61461144 -144.30840965 27.31921407 -138.87982178 23.79780579 C-94.35572363 -4.73055256 -51.49510273 -3.36256022 0 0 Z " fill="#C8102E" transform="translate(1199,0)"/>
<path d="M0 0 C-3.26119933 2.61809211 -6.69112385 4.51621296 -10.39683056 6.4457655 C-11.04000108 6.78183664 -11.6831716 7.11790779 -12.34583214 7.46416292 C-14.5086487 8.59295101 -16.67420548 9.71636978 -18.83988953 10.83964539 C-20.40519923 11.65459785 -21.97038981 12.46977916 -23.53547126 13.2851699 C-27.84472187 15.52857244 -32.15675837 17.76657042 -36.46954525 20.00316584 C-39.22904356 21.43458582 -41.98784995 22.86733139 -44.74648857 24.30040741 C-79.87083104 42.54359984 -115.09874533 60.58350263 -150.36986981 78.54105948 C-156.16317043 81.490685 -161.95572049 84.4417816 -167.74780273 87.39379883 C-168.90049732 87.98125343 -170.05319191 88.56870804 -171.24081663 89.1739643 C-189.74113507 98.60710544 -208.17302612 108.16673206 -226.58127394 117.7780719 C-245.58257746 127.69541863 -264.6528277 137.46957454 -283.78982097 147.12251884 C-294.49228209 152.5257286 -305.15693429 157.98372451 -315.74509239 163.60809898 C-374.01904319 194.51009197 -420.88460546 206.97683092 -487 200 C-483.73880067 197.38190789 -480.30887615 195.48378704 -476.60316944 193.5542345 C-475.95999892 193.21816336 -475.3168284 192.88209221 -474.65416786 192.53583708 C-472.4913513 191.40704899 -470.32579452 190.28363022 -468.16011047 189.16035461 C-466.59480077 188.34540215 -465.02961019 187.53022084 -463.46452874 186.7148301 C-459.15527813 184.47142756 -454.84324163 182.23342958 -450.53045475 179.99683416 C-447.77095644 178.56541418 -445.01215005 177.13266861 -442.25351143 175.69959259 C-407.12916896 157.45640016 -371.90125467 139.41649737 -336.63013019 121.45894052 C-330.83682957 118.509315 -325.04427951 115.5582184 -319.25219727 112.60620117 C-318.09950268 112.01874657 -316.94680809 111.43129196 -315.75918337 110.8260357 C-297.25886493 101.39289456 -278.82697388 91.83326794 -260.41872606 82.2219281 C-241.41742254 72.30458137 -222.3471723 62.53042546 -203.21017903 52.87748116 C-192.50771791 47.4742714 -181.84306571 42.01627549 -171.25490761 36.39190102 C-112.98095681 5.48990803 -66.11539454 -6.97683092 0 0 Z " fill="#C8102E" transform="translate(488,400)"/>
<path d="M0 0 C87.45 0 174.9 0 265 0 C265 43.89 265 87.78 265 133 C243.17517454 122.66192478 243.17517454 122.66192478 234.37605286 118.24815369 C233.3552649 117.73818692 232.33447695 117.22822016 231.28275603 116.70279986 C227.94121847 115.03283948 224.60109665 113.36006879 221.26098633 111.68725586 C218.83476745 110.47372466 216.40824457 109.26080185 213.98173523 108.04785156 C208.79814683 105.45631714 203.61528174 102.86334123 198.4329319 100.26933098 C190.94049903 96.51901805 183.44693756 92.77096474 175.95311543 89.02342875 C163.78932901 82.94044634 151.62643337 76.85568508 139.46411133 70.76977539 C127.66282752 64.86453064 115.86111594 58.96014219 104.05883789 53.05688477 C103.32902872 52.69184882 102.59921956 52.32681288 101.84729496 51.95071524 C98.18536241 50.11909635 94.52342154 48.28749408 90.86147654 46.45590007 C60.57302896 31.30650889 30.28603272 16.1542183 0 1 C0 0.67 0 0.34 0 0 Z " fill="#012169" transform="translate(935,400)"/>
<path d="M0 0 C87.45 0 174.9 0 265 0 C262.05400543 2.20949593 259.67221235 3.78878285 256.45008564 5.39940166 C255.5370553 5.85821624 254.62402495 6.31703081 253.68332702 6.78974885 C252.68401395 7.2868336 251.68470088 7.78391836 250.65510559 8.29606628 C249.59066984 8.82949137 248.5262341 9.36291645 247.42954272 9.91250592 C244.47753634 11.39083982 241.52377652 12.86556296 238.56921923 14.33878553 C235.38238615 15.92891231 232.19786171 17.52365027 229.01304626 19.11781311 C222.77579822 22.23895772 216.53642256 25.35582589 210.2963169 28.47125264 C203.03469417 32.0968738 195.77516265 35.7266728 188.51571234 39.35664121 C175.56851532 45.83049002 162.61938968 52.30047172 149.66918945 58.76831055 C137.09123893 65.05023686 124.51469699 71.33497162 111.93969727 77.62280273 C111.16469471 78.01032399 110.38969216 78.39784524 109.59120468 78.79710957 C108.81756506 79.18394955 108.04392545 79.57078954 107.24684221 79.96935195 C92.94319652 87.12151928 78.63823796 94.27105713 64.33266309 101.4193649 C59.26627615 103.95104753 54.20028211 106.4835153 49.13440895 109.01622581 C42.96752514 112.09932743 36.79989136 115.18092285 30.63130287 118.26061245 C27.48136166 119.83326732 24.33174454 121.40656235 21.18297958 122.9815712 C17.77771679 124.68484717 14.37091969 126.38503827 10.96394348 128.08488464 C9.95793824 128.58866156 8.95193301 129.09243848 7.91544276 129.61148137 C7.01023566 130.0624727 6.10502856 130.51346403 5.17239094 130.97812176 C4.38512066 131.37140468 3.59785039 131.76468761 2.78672343 132.1698882 C1 133 1 133 0 133 C0 89.11 0 45.22 0 0 Z " fill="#012169" transform="translate(0,400)"/>
<path d="M0 0 C0 43.89 0 87.78 0 133 C-87.45 133 -174.9 133 -265 133 C-262.05400543 130.79050407 -259.67221235 129.21121715 -256.45008564 127.60059834 C-255.5370553 127.14178376 -254.62402495 126.68296919 -253.68332702 126.21025115 C-252.18435741 125.46462402 -252.18435741 125.46462402 -250.65510559 124.70393372 C-249.05845197 123.90379609 -249.05845197 123.90379609 -247.42954272 123.08749408 C-244.47753634 121.60916018 -241.52377652 120.13443704 -238.56921923 118.66121447 C-235.38238615 117.07108769 -232.19786171 115.47634973 -229.01304626 113.88218689 C-222.77579822 110.76104228 -216.53642256 107.64417411 -210.2963169 104.52874736 C-203.03469417 100.9031262 -195.77516265 97.2733272 -188.51571234 93.64335879 C-175.56851532 87.16950998 -162.61938968 80.69952828 -149.66918945 74.23168945 C-137.09123893 67.94976314 -124.51469699 61.66502838 -111.93969727 55.37719727 C-111.16469471 54.98967601 -110.38969216 54.60215476 -109.59120468 54.20289043 C-108.81756506 53.81605045 -108.04392545 53.42921046 -107.24684221 53.03064805 C-92.94319652 45.87848072 -78.63823796 38.72894287 -64.33266309 31.5806351 C-59.26627615 29.04895247 -54.20028211 26.5164847 -49.13440895 23.98377419 C-42.96752514 20.90067257 -36.79989136 17.81907715 -30.63130287 14.73938755 C-27.48136166 13.16673268 -24.33174454 11.59343765 -21.18297958 10.0184288 C-17.77771679 8.31515283 -14.37091969 6.61496173 -10.96394348 4.91511536 C-9.45493563 4.15944998 -9.45493563 4.15944998 -7.91544276 3.38851863 C-6.55763211 2.71203164 -6.55763211 2.71203164 -5.17239094 2.02187824 C-4.38512066 1.62859532 -3.59785039 1.23531239 -2.78672343 0.8301118 C-1 0 -1 0 0 0 Z " fill="#012169" transform="translate(1200,67)"/>
<path d="M0 0 C21.82482546 10.33807522 21.82482546 10.33807522 30.62394714 14.75184631 C32.15512907 15.51679646 32.15512907 15.51679646 33.71724397 16.29720014 C37.05878153 17.96716052 40.39890335 19.63993121 43.73901367 21.31274414 C46.16523255 22.52627534 48.59175543 23.73919815 51.01826477 24.95214844 C56.20185317 27.54368286 61.38471826 30.13665877 66.5670681 32.73066902 C74.05950097 36.48098195 81.55306244 40.22903526 89.04688457 43.97657125 C101.21067099 50.05955366 113.37356663 56.14431492 125.53588867 62.23022461 C137.33717248 68.13546936 149.13888406 74.03985781 160.94116211 79.94311523 C161.67097128 80.30815118 162.40078044 80.67318712 163.15270504 81.04928476 C166.81463759 82.88090365 170.47657846 84.71250592 174.13852346 86.54409993 C204.42697104 101.69349111 234.71396728 116.8457817 265 132 C265 132.33 265 132.66 265 133 C177.55 133 90.1 133 0 133 C0 89.11 0 45.22 0 0 Z " fill="#012169" transform="translate(0,67)"/>
<path d="M0 0 C60.42681072 -4.81391201 104.85543822 1.14464545 158.21329856 29.99921843 C166.52444642 34.4839583 174.94272605 38.74978182 183.36903345 43.01299483 C198.37343642 50.61097148 213.29241778 58.36194376 228.16040039 66.22314453 C242.54400706 73.82778656 256.9656533 81.35138334 271.44262695 88.77685547 C272.34521319 89.23983978 273.24779943 89.7028241 274.17773677 90.17983824 C278.70907663 92.50361111 283.24117977 94.82589078 287.77366364 97.14743137 C324.97039296 116.20202283 362.02411135 135.5207953 399 155 C399 169.85 399 184.7 399 200 C377.03173832 189.59398131 377.03173832 189.59398131 367.60167152 184.86537641 C366.55361522 184.34030923 366.55361522 184.34030923 365.48438606 183.80463462 C364.7598739 183.44161481 364.03536173 183.078595 363.28889465 182.70457458 C361.70515751 181.91292485 360.12133222 181.12145144 358.53742808 180.33013588 C354.24686302 178.18595665 349.95752927 176.03932505 345.6684171 173.89224136 C341.01981469 171.56576002 336.37003919 169.24162533 331.72041321 166.91719055 C323.6851808 162.89983522 315.65067605 158.88102785 307.61667824 154.86120415 C296.00118133 149.04937429 284.38456694 143.23978095 272.76768764 137.43071485 C253.91538609 128.00347256 235.06397658 118.57444793 216.21313477 109.14428711 C197.91249955 99.98937274 179.61144008 90.83530734 161.30981445 81.68237305 C160.17974788 81.1172084 159.04968131 80.55204375 157.88537029 79.9697529 C152.21557217 77.13420127 146.54576576 74.29866622 140.87595522 71.46313941 C93.91601796 47.97799613 46.95753116 24.48995379 0 1 C0 0.67 0 0.34 0 0 Z " fill="#C8102E" transform="translate(801,400)"/>
<path d="M0 0 C21.96826168 10.40601869 21.96826168 10.40601869 31.39832848 15.13462359 C32.09703268 15.48466838 32.79573688 15.83471317 33.51561394 16.19536538 C34.2401261 16.55838519 34.96463827 16.921405 35.71110535 17.29542542 C37.29484249 18.08707515 38.87866778 18.87854856 40.46257192 19.66986412 C44.75313698 21.81404335 49.04247073 23.96067495 53.3315829 26.10775864 C57.98018531 28.43423998 62.62996081 30.75837467 67.27958679 33.08280945 C75.3148192 37.10016478 83.34932395 41.11897215 91.38332176 45.13879585 C102.99881867 50.95062571 114.61543306 56.76021905 126.23231236 62.56928515 C145.08461391 71.99652744 163.93602342 81.42555207 182.78686523 90.85571289 C201.08750045 100.01062726 219.38855992 109.16469266 237.69018555 118.31762695 C238.82025212 118.8827916 239.95031869 119.44795625 241.11462971 120.0302471 C246.78442783 122.86579873 252.45423424 125.70133378 258.12404478 128.53686059 C305.08398204 152.02200387 352.04246884 175.51004621 399 199 C399 199.33 399 199.66 399 200 C338.57318928 204.81391201 294.14456178 198.85535455 240.78670144 170.00078157 C232.47555358 165.5160417 224.05727395 161.25021818 215.63096655 156.98700517 C200.62656358 149.38902852 185.70758222 141.63805624 170.83959961 133.77685547 C156.45599294 126.17221344 142.0343467 118.64861666 127.55737305 111.22314453 C126.65478681 110.76016022 125.75220057 110.2971759 124.82226323 109.82016176 C120.29092337 107.49638889 115.75882023 105.17410922 111.22633636 102.85256863 C74.02960704 83.79797717 36.97588865 64.4792047 0 45 C0 30.15 0 15.3 0 0 Z " fill="#C8102E" transform="translate(0,0)"/>
</svg>
