<svg width="20" height="19" viewBox="0 0 20 19" fill="none" xmlns="http://www.w3.org/2000/svg">
<ellipse cx="10" cy="9.5" rx="10" ry="9.5" fill="#E7373C"/>
<path d="M13.0775 8.215L8.64801 12.0542C8.60943 12.0878 8.56359 12.1144 8.51312 12.1326C8.46264 12.1507 8.40852 12.1601 8.35387 12.1601C8.29921 12.1601 8.2451 12.1507 8.19462 12.1326C8.14415 12.1144 8.0983 12.0878 8.05973 12.0542L6.12184 10.3746C6.08321 10.3411 6.05257 10.3013 6.03166 10.2576C6.01076 10.2139 6 10.167 6 10.1196C6 10.0723 6.01076 10.0254 6.03166 9.98164C6.05257 9.9379 6.08321 9.89815 6.12184 9.86467C6.16047 9.83119 6.20632 9.80463 6.25679 9.78651C6.30726 9.76839 6.36135 9.75907 6.41598 9.75907C6.47061 9.75907 6.5247 9.76839 6.57517 9.78651C6.62564 9.80463 6.6715 9.83119 6.71013 9.86467L8.35421 11.2897L12.4899 7.7057C12.5679 7.63808 12.6737 7.6001 12.784 7.6001C12.8943 7.6001 13.0001 7.63808 13.0782 7.7057C13.1562 7.77332 13.2 7.86503 13.2 7.96065C13.2 8.05627 13.1562 8.14798 13.0782 8.2156L13.0775 8.215Z" fill="white"/>
</svg>
