<?xml version="1.0" encoding="UTF-8"?>
<svg version="1.1" xmlns="http://www.w3.org/2000/svg" width="860" height="660">
<path d="M0 0 C8.46199683 5.86526192 17.28486091 12.81142948 22.55859375 21.7734375 C23.0896875 22.64097656 23.62078125 23.50851563 24.16796875 24.40234375 C31.68724481 37.84752547 30.85288036 53.23725429 30.81929016 68.20544434 C30.82231635 70.13398304 30.82620817 72.06252055 30.83088273 73.99105597 C30.84111085 79.25276243 30.83899423 84.51440037 30.83470213 89.77611232 C30.8322255 95.46535767 30.84126058 101.15458692 30.84873962 106.84382629 C30.86146181 117.97415848 30.86328348 129.10446652 30.86093936 140.23480475 C30.85915358 149.28371106 30.86091141 158.33261006 30.8651638 167.3815155 C30.86575899 168.67124601 30.86635418 169.96097652 30.86696741 171.28978977 C30.8681792 173.91015979 30.86939333 176.53052981 30.87060978 179.15089983 C30.8783914 196.73258163 30.88232 214.31425954 30.87829304 231.89594269 C30.87813666 232.58256991 30.87798029 233.26919714 30.87781917 233.97663125 C30.87701346 237.45627793 30.87616768 240.9359246 30.87530587 244.41557127 C30.87513478 245.10657104 30.87496369 245.79757081 30.87478742 246.50950996 C30.87444076 247.90687574 30.87409223 249.30424153 30.87374183 250.70160731 C30.86838373 272.44838575 30.87632091 294.19512365 30.89477539 315.94189453 C30.91551168 340.40586118 30.9261841 364.86979849 30.9221999 389.33377504 C30.92028905 402.27568776 30.92276439 415.21756354 30.93691444 428.1594696 C30.9488365 439.17463512 30.95022367 450.18974095 30.93812428 461.2049073 C30.93224199 466.82094761 30.93111834 472.43687877 30.94312668 478.05291176 C30.95400639 483.20104448 30.95085726 488.3489772 30.93686499 493.49710065 C30.93422388 495.35222309 30.93656605 497.20736131 30.94460086 499.06246823 C31.01217077 515.8371157 30.10798511 533.37237742 18.55859375 546.7734375 C17.89859375 546.7734375 17.23859375 546.7734375 16.55859375 546.7734375 C16.31882812 547.35480469 16.0790625 547.93617188 15.83203125 548.53515625 C10.39850718 558.0854915 -4.15045766 565.1185946 -14.30859375 568.265625 C-21.52539271 569.98391047 -28.56205946 569.95700814 -35.94140625 569.9609375 C-37.15183594 569.97318359 -38.36226562 569.98542969 -39.609375 569.99804688 C-41.36701172 570.00094727 -41.36701172 570.00094727 -43.16015625 570.00390625 C-44.22169922 570.00801514 -45.28324219 570.01212402 -46.37695312 570.01635742 C-50.76664863 569.66838522 -54.28267687 568.93216688 -57.44140625 565.7734375 C-59.46852429 556.13160818 -59.72146016 546.3557367 -59.64395142 536.53675842 C-59.64068187 535.17209073 -59.63831427 533.80742064 -59.63675535 532.44274992 C-59.62997589 528.73830662 -59.61061915 525.03402521 -59.5889945 521.32964289 C-59.56784127 517.31465922 -59.55867502 513.29964489 -59.54798889 509.28462219 C-59.52788136 502.33264113 -59.50033931 495.38072208 -59.46767044 488.42878914 C-59.42022315 478.32546493 -59.38444531 468.22212463 -59.35138719 458.11874431 C-59.29721774 441.65375402 -59.2340433 425.18881128 -59.16503906 408.72387695 C-59.09856601 392.85768022 -59.03579165 376.99147688 -58.97851562 361.12524414 C-58.97500318 360.15269383 -58.97149074 359.18014352 -58.96787186 358.17812199 C-58.94675299 352.32038118 -58.92579493 346.4626398 -58.90490296 340.60489817 C-58.87412477 331.9764613 -58.84318701 323.34802501 -58.81210327 314.71958923 C-58.80874633 313.78630981 -58.80538938 312.85303039 -58.80193071 311.89146977 C-58.75601695 299.15080866 -58.70717155 286.41016212 -58.65572475 273.66952219 C-58.48034245 231.78556391 -58.48034245 231.78556391 -58.3948009 189.90135658 C-58.39303836 187.92223901 -58.39050719 185.94312193 -58.38708043 183.96400654 C-58.36528497 170.2102927 -58.59821404 156.505425 -59.44140625 142.7734375 C-60.76140625 142.7734375 -62.08140625 142.7734375 -63.44140625 142.7734375 C-63.44140625 143.4334375 -63.44140625 144.0934375 -63.44140625 144.7734375 C-65.43302035 146.29784588 -67.41729218 147.70290619 -69.50390625 149.0859375 C-70.69956358 149.89271835 -71.89487884 150.70000642 -73.08984375 151.5078125 C-73.66831055 151.89646484 -74.24677734 152.28511719 -74.84277344 152.68554688 C-76.80688057 154.02214758 -78.71970586 155.42231679 -80.62890625 156.8359375 C-83.44140625 158.7734375 -83.44140625 158.7734375 -85.44140625 158.7734375 C-85.44140625 159.4334375 -85.44140625 160.0934375 -85.44140625 160.7734375 C-87.05859375 162.03515625 -87.05859375 162.03515625 -89.31640625 163.4609375 C-96.29373307 167.96349371 -103.05217669 172.74615637 -109.75390625 177.6484375 C-118.61558698 184.11034009 -127.60815502 190.31663318 -136.890625 196.16015625 C-144.23040674 200.8023153 -151.35707439 205.75270982 -158.44140625 210.7734375 C-159.34117187 211.4025 -160.2409375 212.0315625 -161.16796875 212.6796875 C-165.7762483 215.95091693 -170.11299804 219.29895163 -174.25390625 223.1484375 C-180.21613584 228.64620088 -186.7860866 233.16854502 -193.44140625 237.7734375 C-195.0459677 238.89787436 -196.65017338 240.0228192 -198.25390625 241.1484375 C-199.04410156 241.70015625 -199.83429687 242.251875 -200.6484375 242.8203125 C-210.25970208 249.54147654 -219.82913117 256.3157345 -229.31640625 263.2109375 C-236.39179512 268.34930254 -243.56936443 273.32033077 -250.8034668 278.23217773 C-255.13392066 281.17710313 -259.41155582 284.16867538 -263.62890625 287.2734375 C-275.19034693 295.7734375 -275.19034693 295.7734375 -278.44140625 295.7734375 C-278.44140625 296.4334375 -278.44140625 297.0934375 -278.44140625 297.7734375 C-279.446875 298.32515625 -280.45234375 298.876875 -281.48828125 299.4453125 C-286.10469736 302.08127215 -290.29807035 305.22591096 -294.54296875 308.4140625 C-299.12211682 311.7734375 -299.12211682 311.7734375 -302.44140625 311.7734375 C-302.44140625 312.4334375 -302.44140625 313.0934375 -302.44140625 313.7734375 C-302.99828125 314.0003125 -303.55515625 314.2271875 -304.12890625 314.4609375 C-306.63813289 315.7433765 -306.63813289 315.7433765 -308.87890625 318.2734375 C-311.42909077 320.76142239 -313.20108349 321.51331198 -316.44140625 322.7734375 C-316.77140625 323.7634375 -317.10140625 324.7534375 -317.44140625 325.7734375 C-319.32193567 327.22538115 -321.27277474 328.58708355 -323.25390625 329.8984375 C-324.43893112 330.69318274 -325.62249099 331.49011611 -326.8046875 332.2890625 C-327.40877441 332.69705078 -328.01286133 333.10503906 -328.63525391 333.52539062 C-332.44960902 336.16110073 -336.10602073 339.00812827 -339.78515625 341.828125 C-342.26437664 343.64378934 -344.80467819 345.20145405 -347.44140625 346.7734375 C-348.21484375 347.5778125 -348.21484375 347.5778125 -349.00390625 348.3984375 C-350.73920238 350.05828598 -352.10612229 350.37080233 -354.44140625 350.7734375 C-354.44140625 351.4334375 -354.44140625 352.0934375 -354.44140625 352.7734375 C-356.20544354 354.03180348 -358.02920124 355.207264 -359.87890625 356.3359375 C-363.34577061 358.30877673 -363.34577061 358.30877673 -366.44140625 360.7734375 C-369.57120243 361.35049367 -371.69568362 361.19432962 -374.48828125 359.61816406 C-376.86178073 357.94219568 -379.15534568 356.1918542 -381.44140625 354.3984375 C-383.14523509 353.10207793 -384.84966611 351.80650943 -386.5546875 350.51171875 C-387.38822754 349.87186035 -388.22176758 349.23200195 -389.08056641 348.57275391 C-392.21945336 346.18044813 -395.41093821 343.87021902 -398.62890625 341.5859375 C-399.44766235 341.00090454 -399.44766235 341.00090454 -400.28295898 340.40405273 C-403.39047264 338.19350639 -406.52610797 336.02920076 -409.68359375 333.890625 C-410.40264893 333.40231201 -411.1217041 332.91399902 -411.86254883 332.41088867 C-413.24688166 331.47353231 -414.63453416 330.54105184 -416.02612305 329.61450195 C-419.92940669 326.97441047 -423.1217151 324.1417095 -426.44140625 320.7734375 C-428.36466258 319.32965593 -430.32601096 317.93565848 -432.31640625 316.5859375 C-432.87739014 316.20356934 -433.43837402 315.82120117 -434.01635742 315.42724609 C-438.86990098 312.12916264 -443.76155262 308.88717091 -448.64868164 305.63916016 C-459.80967615 298.21365318 -470.79614977 290.56717782 -481.64404297 282.69140625 C-487.56373815 278.39544991 -493.52842144 274.16715991 -499.51245117 269.96142578 C-504.43452191 266.49776792 -509.30737937 262.97618033 -514.14453125 259.39453125 C-516.47213563 257.69580197 -516.47213563 257.69580197 -519.23828125 256.18359375 C-519.9653125 255.71824219 -520.69234375 255.25289063 -521.44140625 254.7734375 C-521.44140625 254.1134375 -521.44140625 253.4534375 -521.44140625 252.7734375 C-522.14265625 252.5259375 -522.84390625 252.2784375 -523.56640625 252.0234375 C-526.83655173 250.60163512 -529.58252825 248.90097462 -532.44140625 246.7734375 C-532.44140625 246.1134375 -532.44140625 245.4534375 -532.44140625 244.7734375 C-533.15167969 244.51820313 -533.86195313 244.26296875 -534.59375 244 C-537.68230327 242.66967664 -540.22770026 241.04456731 -543.00390625 239.1484375 C-547.61578647 236.00519814 -547.61578647 236.00519814 -552.29296875 232.9609375 C-560.96128264 227.4208581 -568.70542484 220.91213245 -576.58398438 214.31933594 C-585.79127934 206.65627183 -595.55356332 199.91842552 -605.6875 193.546875 C-609.34976874 191.18847783 -612.90008236 188.68612623 -616.4453125 186.15625 C-618.3857673 184.74220552 -618.3857673 184.74220552 -620.44140625 183.7734375 C-620.44140625 183.1134375 -620.44140625 182.4534375 -620.44140625 181.7734375 C-623.41140625 180.7834375 -623.41140625 180.7834375 -626.44140625 179.7734375 C-626.44140625 179.1134375 -626.44140625 178.4534375 -626.44140625 177.7734375 C-627.14265625 177.5259375 -627.84390625 177.2784375 -628.56640625 177.0234375 C-631.83655173 175.60163512 -634.58252825 173.90097462 -637.44140625 171.7734375 C-637.44140625 171.1134375 -637.44140625 170.4534375 -637.44140625 169.7734375 C-638.12976563 169.53882813 -638.818125 169.30421875 -639.52734375 169.0625 C-643.04076424 167.50830595 -645.98957186 165.41269167 -649.06640625 163.1484375 C-649.68032227 162.70330811 -650.29423828 162.25817871 -650.92675781 161.79956055 C-652.76870287 160.46254931 -654.60549916 159.11872297 -656.44140625 157.7734375 C-664.70336102 151.74672711 -664.70336102 151.74672711 -673.00390625 145.7734375 C-673.80957031 145.1959375 -674.61523438 144.6184375 -675.4453125 144.0234375 C-677.33138633 142.59652278 -677.33138633 142.59652278 -679.44140625 142.7734375 C-680.30476167 165.60273567 -680.56023665 188.38691644 -680.45826983 211.23051763 C-680.43915846 215.79868491 -680.4266471 220.36687153 -680.4132843 224.93505859 C-680.38943181 232.81004659 -680.36173547 240.685013 -680.33137512 248.55997849 C-680.28753327 259.95714002 -680.25091883 271.35431665 -680.21613449 282.75150903 C-680.15952482 301.26876051 -680.09880006 319.78599576 -680.03466797 338.30322266 C-680.03084954 339.40614685 -680.02703112 340.50907103 -680.02309698 341.64541717 C-679.99983972 348.35725614 -679.97649064 355.06909479 -679.95312405 361.78093338 C-679.91794358 371.89122708 -679.8829369 382.00152137 -679.84814453 392.11181641 C-679.84432941 393.22003743 -679.84051429 394.32825846 -679.83658355 395.47006194 C-679.77307795 413.9547615 -679.71363098 432.43947205 -679.65702105 450.92419398 C-679.62199416 462.29578285 -679.58328074 473.66734781 -679.53974783 485.03890736 C-679.51020314 492.81549518 -679.48429908 500.5920896 -679.46124828 508.36869936 C-679.44783141 512.85019622 -679.43271276 517.33167057 -679.41303444 521.81314468 C-679.3950306 525.91910369 -679.38183366 530.02504977 -679.37236243 534.13103707 C-679.3681068 535.61140039 -679.3621161 537.09176003 -679.35415667 538.57210808 C-679.23406757 561.44204844 -679.23406757 561.44204844 -682.44140625 566.7734375 C-690.83391975 572.68634474 -708.78972614 570.45736813 -718.56640625 568.9609375 C-720.528811 568.58580941 -722.48754643 568.19079259 -724.44140625 567.7734375 C-725.29605469 567.60199219 -726.15070313 567.43054688 -727.03125 567.25390625 C-734.37860908 565.45478989 -739.53960777 561.34525322 -745.44140625 556.7734375 C-746.66114872 555.96732639 -747.88827203 555.17200943 -749.12890625 554.3984375 C-750.27359375 553.5940625 -750.27359375 553.5940625 -751.44140625 552.7734375 C-751.44140625 552.1134375 -751.44140625 551.4534375 -751.44140625 550.7734375 C-752.02921875 550.54785156 -752.61703125 550.32226562 -753.22265625 550.08984375 C-761.06250941 545.43838158 -765.59305905 532.31458668 -767.98561873 523.82260772 C-768.81372609 520.09952871 -768.91744429 516.35390293 -769.0580492 512.55242634 C-769.09565963 511.67733778 -769.13327005 510.80224922 -769.17202019 509.90064283 C-769.5376593 500.70411179 -769.58403993 491.51207453 -769.57511902 482.30961609 C-769.57699319 480.43863515 -769.57929627 478.56765459 -769.58198434 476.69667464 C-769.58803322 471.61730495 -769.58797705 466.53795188 -769.58678997 461.45857942 C-769.58658421 455.95688593 -769.59212102 450.45519753 -769.59684753 444.95350647 C-769.60511477 434.20152758 -769.60790052 423.44955418 -769.60845991 412.69757237 C-769.6089366 403.95628192 -769.61099894 395.21499327 -769.61416054 386.47370338 C-769.62152588 365.68498463 -769.62768661 344.89626706 -769.62716198 324.10754681 C-769.6271464 323.44449256 -769.62713082 322.78143832 -769.62711477 322.09829153 C-769.62703168 318.73834723 -769.62693264 315.37840293 -769.62683006 312.01845863 C-769.62681012 311.35126466 -769.62679017 310.68407068 -769.62676962 309.99665871 C-769.62672919 308.6474376 -769.62668739 307.29821649 -769.62664423 305.94899538 C-769.62603097 284.93986697 -769.63355186 263.93075467 -769.6472168 242.92163086 C-769.66259285 219.27250455 -769.67116958 195.6233863 -769.67025357 171.97425395 C-769.669922 159.46837525 -769.67265215 146.96251476 -769.68343163 134.45664024 C-769.69254469 123.81673494 -769.69470494 113.17685611 -769.6879222 102.53694858 C-769.68466213 97.11329411 -769.68458203 91.68969042 -769.69327545 86.2660408 C-769.70116306 81.29393651 -769.69968604 76.32192309 -769.69099132 71.34982095 C-769.6894614 69.55877705 -769.69125316 67.76772629 -769.6968514 65.97669049 C-769.78096026 37.14062641 -769.78096026 37.14062641 -763.44140625 26.0234375 C-763.085625 25.353125 -762.72984375 24.6828125 -762.36328125 23.9921875 C-760.84333162 21.15646059 -759.22656853 18.45118092 -757.44140625 15.7734375 C-756.78140625 15.7734375 -756.12140625 15.7734375 -755.44140625 15.7734375 C-755.11140625 14.7834375 -754.78140625 13.7934375 -754.44140625 12.7734375 C-752.6640625 11.16796875 -752.6640625 11.16796875 -750.50390625 9.5859375 C-749.79363281 9.05613281 -749.08335937 8.52632812 -748.3515625 7.98046875 C-746.44140625 6.7734375 -746.44140625 6.7734375 -744.44140625 6.7734375 C-744.11140625 5.7834375 -743.78140625 4.7934375 -743.44140625 3.7734375 C-733.69899456 -4.31069135 -723.77616046 -6.5116299 -711.35205078 -5.47509766 C-702.17875442 -4.28184239 -694.58526424 3.24270799 -687.484375 8.703125 C-683.87774512 11.46663545 -680.19453976 14.08862506 -676.44140625 16.6484375 C-672.18453315 19.55686011 -668.0127855 22.53211731 -663.9296875 25.6796875 C-662.41643143 26.85646869 -662.41643143 26.85646869 -660.44140625 27.7734375 C-660.44140625 28.4334375 -660.44140625 29.0934375 -660.44140625 29.7734375 C-659.72339844 30.02996094 -659.00539063 30.28648438 -658.265625 30.55078125 C-655.27000624 31.84763972 -652.89381643 33.42290123 -650.25390625 35.3359375 C-646.96262302 37.74544389 -646.96262302 37.74544389 -643.44140625 39.7734375 C-643.44140625 40.4334375 -643.44140625 41.0934375 -643.44140625 41.7734375 C-642.77882813 41.99386719 -642.11625 42.21429688 -641.43359375 42.44140625 C-637.46706791 44.20718342 -634.10831735 46.59335894 -630.56640625 49.0859375 C-629.88449219 49.55966797 -629.20257812 50.03339844 -628.5 50.52148438 C-627.14293884 51.46625743 -625.78903332 52.41558092 -624.43847656 53.36962891 C-623.09196984 54.31613424 -621.73686459 55.25050905 -620.37402344 56.17333984 C-618.69523556 57.3244966 -617.06322187 58.54331364 -615.44140625 59.7734375 C-615.44140625 60.4334375 -615.44140625 61.0934375 -615.44140625 61.7734375 C-614.45140625 62.051875 -614.45140625 62.051875 -613.44140625 62.3359375 C-609.76942946 64.09542638 -607.19189593 66.47327395 -604.2109375 69.21484375 C-602.51326119 70.84400466 -602.51326119 70.84400466 -600.44140625 71.7734375 C-600.44140625 72.4334375 -600.44140625 73.0934375 -600.44140625 73.7734375 C-599.72210937 74.02738281 -599.0028125 74.28132813 -598.26171875 74.54296875 C-595.23306964 75.86433228 -592.94493153 77.46404292 -590.31640625 79.4609375 C-586.72352049 82.13171295 -583.12028359 84.66340994 -579.31640625 87.0234375 C-573.75742573 90.50274252 -568.42856307 94.26726183 -563.08520508 98.06469727 C-557.91790243 101.73588353 -552.7255924 105.36749347 -547.50390625 108.9609375 C-546.82368408 109.43047852 -546.14346191 109.90001953 -545.44262695 110.38378906 C-542.04143111 112.74297498 -542.04143111 112.74297498 -538.44140625 114.7734375 C-538.44140625 115.4334375 -538.44140625 116.0934375 -538.44140625 116.7734375 C-537.75433594 117.00417969 -537.06726563 117.23492187 -536.359375 117.47265625 C-532.7901139 119.06377264 -529.84919611 121.24062047 -526.75390625 123.5859375 C-525.41850491 124.58144879 -524.08254282 125.5762082 -522.74609375 126.5703125 C-522.04581055 127.09302734 -521.34552734 127.61574219 -520.62402344 128.15429688 C-516.90082152 130.91629633 -513.13984867 133.62566979 -509.37890625 136.3359375 C-508.61916504 136.88386963 -507.85942383 137.43180176 -507.07666016 137.99633789 C-504.86575683 139.58988643 -502.65385521 141.18203574 -500.44140625 142.7734375 C-499.79751953 143.23669434 -499.15363281 143.69995117 -498.49023438 144.17724609 C-496.70429395 145.46094983 -494.91701434 146.74275526 -493.12890625 148.0234375 C-492.57436768 148.42119385 -492.0198291 148.8189502 -491.44848633 149.22875977 C-488.55269854 151.29717962 -485.6365434 153.32843477 -482.6875 155.3203125 C-482.08010986 155.73249023 -481.47271973 156.14466797 -480.84692383 156.56933594 C-479.16631577 157.7058722 -477.47981901 158.83368673 -475.79296875 159.9609375 C-474.62894531 160.858125 -474.62894531 160.858125 -473.44140625 161.7734375 C-473.44140625 162.4334375 -473.44140625 163.0934375 -473.44140625 163.7734375 C-472.78140625 163.9796875 -472.12140625 164.1859375 -471.44140625 164.3984375 C-468.82407065 165.59804965 -466.99492111 166.76623246 -464.734375 168.49609375 C-464.02845215 169.03331055 -463.3225293 169.57052734 -462.59521484 170.12402344 C-461.88445801 170.66833008 -461.17370117 171.21263672 -460.44140625 171.7734375 C-459.1673418 172.73917258 -457.89262155 173.7040432 -456.6171875 174.66796875 C-455.67238525 175.38243164 -455.67238525 175.38243164 -454.70849609 176.11132812 C-446.02944124 182.65910371 -437.2735308 189.09283918 -428.07421875 194.8984375 C-426.77097656 195.8265625 -426.77097656 195.8265625 -425.44140625 196.7734375 C-425.44140625 197.4334375 -425.44140625 198.0934375 -425.44140625 198.7734375 C-424.76464844 199.00417969 -424.08789062 199.23492187 -423.390625 199.47265625 C-419.70549448 201.09801846 -416.53515164 203.28151423 -413.25390625 205.5859375 C-412.56409668 206.06514648 -411.87428711 206.54435547 -411.16357422 207.03808594 C-404.22673222 211.8781769 -397.37980584 216.84336386 -390.53515625 221.8125 C-386.51881897 224.72526571 -382.46699263 227.58369495 -378.38671875 230.40625 C-376.44140625 231.7734375 -376.44140625 231.7734375 -374.55859375 233.453125 C-371.66004577 235.26070658 -369.80310835 235.17684175 -366.44140625 234.7734375 C-364.12067318 233.67498002 -364.12067318 233.67498002 -362.00390625 231.9609375 C-361.14023437 231.31898438 -360.2765625 230.67703125 -359.38671875 230.015625 C-358.41476562 229.27570313 -357.4428125 228.53578125 -356.44140625 227.7734375 C-354.09344183 226.03580449 -351.73540687 224.31196815 -349.37890625 222.5859375 C-348.74452637 222.11873291 -348.11014648 221.65152832 -347.45654297 221.17016602 C-342.02409098 217.17500255 -336.52317653 213.28277774 -331.00537109 209.40673828 C-325.6408052 205.63338816 -320.31543163 201.80853038 -315.00390625 197.9609375 C-308.2288836 193.05496033 -301.40589653 188.22755012 -294.53955078 183.45019531 C-286.92252849 178.14120252 -279.38671845 172.83322275 -272.19921875 166.94921875 C-262.08578663 158.97020786 -251.37811833 151.70761846 -240.84423828 144.29833984 C-235.62001061 140.61925519 -230.43054165 136.8941375 -225.25390625 133.1484375 C-224.50882813 132.61001221 -223.76375 132.07158691 -222.99609375 131.5168457 C-219.41452401 128.92783972 -215.83710118 126.33338026 -212.265625 123.73046875 C-210.99100125 122.80713175 -209.71626789 121.88394602 -208.44140625 120.9609375 C-207.85979736 120.53409668 -207.27818848 120.10725586 -206.67895508 119.66748047 C-202.66822201 116.7734375 -202.66822201 116.7734375 -200.44140625 116.7734375 C-200.11140625 115.7834375 -199.78140625 114.7934375 -199.44140625 113.7734375 C-197.6640625 112.38671875 -197.6640625 112.38671875 -195.50390625 111.0859375 C-194.79363281 110.64894531 -194.08335937 110.21195312 -193.3515625 109.76171875 C-191.44140625 108.7734375 -191.44140625 108.7734375 -189.44140625 108.7734375 C-189.44140625 108.1134375 -189.44140625 107.4534375 -189.44140625 106.7734375 C-187.421875 105.328125 -187.421875 105.328125 -184.62890625 103.6484375 C-180.78585637 101.28236254 -177.14294826 98.83579886 -173.56640625 96.0859375 C-167.42668414 91.5343805 -160.81440223 87.870722 -154.14111328 84.16137695 C-145.70491959 79.45472788 -137.87044648 74.4334901 -130.62890625 68.0234375 C-129.42621748 66.97866428 -128.22308406 65.93440275 -127.01953125 64.890625 C-126.42462891 64.37209961 -125.82972656 63.85357422 -125.21679688 63.31933594 C-122.45187024 60.91181181 -119.67419702 58.52062629 -116.87890625 56.1484375 C-115.94949219 55.35179687 -115.02007813 54.55515625 -114.0625 53.734375 C-111.56126669 51.86310954 -109.38724797 50.76426311 -106.44140625 49.7734375 C-106.44140625 49.1134375 -106.44140625 48.4534375 -106.44140625 47.7734375 C-104.3515625 46.29296875 -104.3515625 46.29296875 -101.50390625 44.5859375 C-96.79679353 41.69112399 -92.4832718 38.56737751 -88.21875 35.05859375 C-86.44140625 33.7734375 -86.44140625 33.7734375 -84.44140625 33.7734375 C-84.44140625 33.1134375 -84.44140625 32.4534375 -84.44140625 31.7734375 C-83.03410089 30.77694733 -81.61832439 29.79024611 -80.16210938 28.86669922 C-77.42938384 27.13044142 -74.82314179 25.22074327 -72.19140625 23.3359375 C-71.59787354 22.91127197 -71.00434082 22.48660645 -70.39282227 22.04907227 C-66.14808603 19.0082381 -61.91758699 15.94798576 -57.68969727 12.88378906 C-54.65298826 10.6854235 -51.61095017 8.49452185 -48.56738281 6.30566406 C-47.20506074 5.32381595 -45.84483316 4.3390512 -44.48730469 3.35058594 C-42.74941234 2.08624382 -41.00311397 0.83455557 -39.25390625 -0.4140625 C-38.29097656 -1.10886719 -37.32804688 -1.80367187 -36.3359375 -2.51953125 C-24.68247661 -9.39208511 -11.12229129 -6.54252429 0 0 Z " fill="#FEFEFE" transform="translate(799.44140625,47.2265625)"/>
</svg>
