<svg width="50" height="51" viewBox="0 0 50 51" fill="none" xmlns="http://www.w3.org/2000/svg">
<path d="M42.7082 13.639C42.7069 13.2367 42.486 12.8476 42.1405 12.639L34.3874 8.08561C34.0779 7.90381 33.6957 7.90394 33.3785 8.07207C28.1895 10.8227 21.8248 10.8216 16.6368 8.06864C16.3231 7.90222 15.9456 7.90002 15.6375 8.07645L7.85941 12.5303C7.51391 12.7389 7.293 13.128 7.2917 13.5303C7.24963 25.5976 13.87 37.0147 24.3231 43.0277C24.7347 43.2643 25.2652 43.2643 25.6768 43.0277C36.0967 37.0336 42.7114 25.6682 42.7082 13.639Z" stroke="#03A300" stroke-width="1.5" stroke-miterlimit="10"/>
<path d="M22.4043 17.2503C22.2655 17.5853 22.2655 18.01 22.2655 18.8594V20.5948C22.2655 20.636 22.2655 20.6567 22.2527 20.6695C22.2399 20.6823 22.2193 20.6823 22.178 20.6823H20.4426C19.5933 20.6823 19.1686 20.6823 18.8336 20.8211C18.3869 21.0061 18.032 21.3609 17.847 21.8076C17.7083 22.1426 17.7083 22.5673 17.7083 23.4167C17.7083 24.266 17.7083 24.6907 17.847 25.0257C18.032 25.4724 18.3869 25.8273 18.8336 26.0123C19.1686 26.151 19.5933 26.151 20.4426 26.151H22.178C22.2193 26.151 22.2399 26.151 22.2527 26.1639C22.2655 26.1767 22.2655 26.1973 22.2655 26.2385V27.974C22.2655 28.8233 22.2655 29.248 22.4043 29.583C22.5893 30.0297 22.9442 30.3846 23.3909 30.5696C23.7259 30.7083 24.1505 30.7083 24.9999 30.7083C25.8493 30.7083 26.274 30.7083 26.609 30.5696C27.0556 30.3846 27.4105 30.0297 27.5955 29.583C27.7343 29.248 27.7343 28.8233 27.7343 27.974V26.2385C27.7343 26.1973 27.7343 26.1767 27.7471 26.1639C27.7599 26.151 27.7805 26.151 27.8218 26.151H29.5572C30.4066 26.151 30.8313 26.151 31.1663 26.0123C31.6129 25.8273 31.9678 25.4724 32.1528 25.0257C32.2916 24.6907 32.2916 24.266 32.2916 23.4167C32.2916 22.5673 32.2916 22.1426 32.1528 21.8076C31.9678 21.3609 31.6129 21.0061 31.1663 20.8211C30.8313 20.6823 30.4066 20.6823 29.5572 20.6823H27.8218C27.7805 20.6823 27.7599 20.6823 27.7471 20.6695C27.7343 20.6567 27.7343 20.636 27.7343 20.5948V18.8594C27.7343 18.01 27.7343 17.5853 27.5955 17.2503C27.4105 16.8037 27.0556 16.4488 26.609 16.2638C26.274 16.125 25.8493 16.125 24.9999 16.125C24.1505 16.125 23.7259 16.125 23.3909 16.2638C22.9442 16.4488 22.5893 16.8037 22.4043 17.2503Z" stroke="#03A300" stroke-width="1.5"/>
</svg>
