<svg width="50" height="52" viewBox="0 0 50 52" fill="none" xmlns="http://www.w3.org/2000/svg">
<path d="M44.7916 26.25C44.7916 37.756 36.5059 46.0417 24.9999 46.0417C13.494 46.0417 5.20825 37.756 5.20825 26.25C5.20825 14.7441 13.494 6.45837 24.9999 6.45837C36.5059 6.45837 44.7916 14.7441 44.7916 26.25Z" stroke="#03A300" stroke-width="1.5"/>
<path d="M34.375 16.875V35.625C34.375 38.1773 29.1666 38.1882 29.1666 35.625L29.1667 29.675C29.1667 29.5093 29.0324 29.375 28.8667 29.375H21.1334C20.9677 29.375 20.8334 29.5093 20.8334 29.675V35.625C20.8334 38.2385 15.625 38.0675 15.625 35.625V16.875C15.625 14.3211 20.8334 14.3188 20.8334 16.875L20.8333 22.825C20.8333 22.9907 20.9677 23.125 21.1333 23.125H28.8666C29.0323 23.125 29.1666 22.9907 29.1666 22.825V16.875C29.1666 14.3207 34.375 14.3206 34.375 16.875Z" stroke="#03A300" stroke-width="1.5"/>
</svg>
