<svg width="50" height="51" viewBox="0 0 50 51" fill="none" xmlns="http://www.w3.org/2000/svg">
<path d="M44.7916 26.5416C44.7916 28.2675 35.3553 29.6666 24.9999 29.6666C14.6446 29.6666 5.20825 28.2675 5.20825 26.5416M44.7916 26.5416C44.7916 24.8157 35.3553 23.4166 24.9999 23.4166C14.6446 23.4166 5.20825 24.8157 5.20825 26.5416M44.7916 26.5416C44.7916 26.5416 40.6249 41.125 24.9999 41.125C9.37492 41.125 5.20825 26.5416 5.20825 26.5416" stroke="#03A300" stroke-width="1.5"/>
<path d="M33.6733 35.9732C35.2567 35.091 36.8214 33.8248 38.1585 32.0073" stroke="#03A300" stroke-width="1.5" stroke-linecap="round"/>
<path d="M16.6666 18.2083C15.3127 17.6442 14.5833 16.5501 14.5833 15.0833C14.5833 13.6166 16.7736 13.4211 16.6666 11.9583C16.6002 11.0511 16.3108 10.4724 15.6249 9.875" stroke="#03A300" stroke-width="1.5" stroke-linecap="round"/>
<path d="M26.0416 18.2083C24.6877 17.6442 23.9583 16.5501 23.9583 15.0833C23.9583 13.6166 26.1486 13.4211 26.0416 11.9583C25.9752 11.0511 25.6858 10.4724 24.9999 9.875" stroke="#03A300" stroke-width="1.5" stroke-linecap="round"/>
<path d="M35.4166 18.2083C34.0627 17.6442 33.3333 16.5501 33.3333 15.0833C33.3333 13.6166 35.5236 13.4211 35.4166 11.9583C35.3502 11.0511 35.0608 10.4724 34.3749 9.875" stroke="#03A300" stroke-width="1.5" stroke-linecap="round"/>
</svg>
