<svg width="90" height="45" viewBox="0 0 90 45" fill="none" xmlns="http://www.w3.org/2000/svg">
<g clip-path="url(#clip0_193_1429)">
<path d="M1.23871 22.059V20.3741C1.35204 20.293 1.32305 20.1578 1.33886 20.0496C1.61411 18.3726 2.3058 16.7966 3.34724 15.4737C4.73096 13.6239 6.47577 12.1905 8.38135 10.9519C11.2806 9.05876 14.4091 7.70654 17.6589 6.62476C21.8021 5.27346 26.0584 4.31922 30.3733 3.77428C33.6736 3.33469 36.9954 3.08639 40.3229 3.03056C45.2527 2.92953 50.1823 3.24521 55.0616 3.97441C58.4881 4.47938 61.8735 5.2432 65.1904 6.25966C68.8672 7.40364 72.4121 8.85593 75.6698 10.9789C77.6466 12.2662 79.4467 13.7645 80.8463 15.7144C81.8362 17.0267 82.4774 18.58 82.707 20.2227C83.0154 22.7081 82.2511 24.8825 80.8384 26.8567C79.4256 28.8309 77.6334 30.3049 75.6566 31.5922C72.254 33.8044 68.5404 35.2973 64.6923 36.4602C58.8543 38.2126 52.8792 39.0997 46.8172 39.4351C41.6819 39.7121 36.5329 39.5447 31.425 38.9347C28.2049 38.5594 25.0117 37.9713 21.8654 37.1741C17.5561 36.068 13.3812 34.5914 9.50678 32.3061C7.39825 31.0648 5.44259 29.6017 3.84011 27.7086C2.76581 26.4811 1.97565 25.0204 1.52863 23.4356C1.40476 22.9785 1.38894 22.5052 1.23871 22.059ZM23.7578 7.61188C23.2841 7.61524 22.8108 7.64322 22.3398 7.69572C19.293 8.19064 16.9973 9.83764 15.7349 12.7125C14.1877 16.2526 14.5304 19.6953 16.7891 22.8541C17.7129 24.1525 18.9999 25.1316 20.479 25.6613C22.1377 26.2461 23.9053 26.4311 25.6449 26.2022C27.5047 26.0288 29.2559 25.2269 30.6237 23.9224C34.0764 20.6148 34.2319 15.306 32.3343 12.0228C31.2874 10.1036 29.5569 8.67494 27.5057 8.03648C26.2775 7.65786 25.0229 7.61188 23.7578 7.61188ZM64.231 24.3794C64.231 24.6877 64.231 24.969 64.231 25.2476C64.26 25.9237 64.2627 25.9291 64.9295 25.9291C66.2473 25.9291 67.5388 25.9291 68.8461 25.9128C68.8988 25.9128 68.9515 25.9128 69.0042 25.9128C69.1228 25.9128 69.2045 25.8425 69.1966 25.71C69.1887 25.5775 69.1966 25.4693 69.0438 25.4396C68.8909 25.4098 68.7275 25.3233 68.5641 25.2827C68.4101 25.2423 68.2721 25.1541 68.1688 25.0302C68.0655 24.9063 68.002 24.7527 67.9869 24.5904C67.9382 24.3693 67.9117 24.1436 67.9078 23.917C67.8937 23.0443 67.8876 22.1699 67.8893 21.2937C67.8893 18.811 67.8893 16.3283 67.8893 13.8456C67.8893 13.5887 67.8182 13.4913 67.5573 13.4832C66.1129 13.4345 64.6712 13.4832 63.2295 13.4832C63.0951 13.4832 62.9448 13.4832 62.9185 13.6779C62.8921 13.8727 63.0081 13.9484 63.1821 13.9808C63.2532 13.9971 63.3217 14.0268 63.3929 14.0458C63.6067 14.0883 63.7998 14.2045 63.9403 14.3753C64.0808 14.546 64.1601 14.7608 64.1652 14.9842C64.1915 15.3493 64.2284 15.7171 64.2284 16.0822C64.2284 18.0267 64.2021 19.9685 64.2521 21.9103C64.2762 22.2298 64.2307 22.5509 64.119 22.8502C64.0073 23.1496 63.8323 23.4197 63.6064 23.6411C63.3476 23.9541 63.0244 24.2044 62.6602 24.374C61.9222 24.6445 61.3424 24.3443 61.142 23.5627C61.096 23.3741 61.0695 23.181 61.063 22.9866C60.9655 20.4526 61.0076 17.9158 61.0103 15.379C61.0103 14.8382 61.0103 14.3189 61.0103 13.7915C61.0103 13.5806 60.947 13.4643 60.7256 13.4643H56.3241C56.2107 13.4643 56.1132 13.4886 56.0842 13.6212C56.0655 13.6834 56.0693 13.7506 56.0949 13.8102C56.1206 13.8698 56.1664 13.918 56.2239 13.9457C56.3327 13.9875 56.4446 14.0201 56.5586 14.043C56.738 14.0665 56.9041 14.1523 57.0293 14.2861C57.1544 14.42 57.2311 14.5938 57.2465 14.7787C57.3277 15.2564 57.3682 15.7405 57.3678 16.2255C57.3678 17.6183 57.3678 19.0111 57.3678 20.4039C57.3444 21.5044 57.407 22.605 57.5549 23.6952C57.7579 24.9663 59.0309 26.186 60.2907 26.2617C61.7667 26.3483 62.8974 25.7371 63.8673 24.685C63.9675 24.5525 64.0334 24.4065 64.231 24.3794ZM49.9458 25.8858C51.6115 25.8858 53.2746 25.8858 54.9403 25.8858C55.2039 25.8858 55.2803 25.7911 55.2962 25.5369C55.3436 24.8284 55.4068 24.1171 55.478 23.4085C55.5474 22.8957 55.5879 22.3792 55.5992 21.8616C55.5992 21.7859 55.6388 21.675 55.5096 21.6561C55.4641 21.6412 55.4151 21.6419 55.37 21.658C55.3249 21.6741 55.286 21.7047 55.2593 21.7453C55.2181 21.8206 55.1812 21.8983 55.1485 21.9779C55.0141 22.2916 54.885 22.6161 54.7427 22.9244C54.5234 23.4124 54.1894 23.8369 53.7708 24.1598C53.3522 24.4826 52.862 24.6938 52.3442 24.7743C51.9937 24.8365 51.6378 24.8933 51.2899 24.9365C50.683 25.0099 50.0717 25.0389 49.4608 25.0231C49.2737 25.0231 49.2315 24.969 49.3316 24.8013C49.4318 24.6336 49.5214 24.4416 49.6268 24.2604L55.6098 14.1025C55.6726 14.0034 55.7223 13.8961 55.7574 13.7834C55.8233 13.5617 55.7969 13.4264 55.4938 13.4345C54.8112 13.4535 54.1259 13.4345 53.4406 13.4345H45.9211C45.7155 13.4345 45.5205 13.4102 45.5257 13.7374C45.5389 14.7624 45.5257 15.7874 45.5257 16.8124C45.5257 16.9368 45.5257 17.0585 45.6892 17.0828C45.8526 17.1072 45.9791 17.1261 46.0423 16.9179C46.1293 16.6312 46.2426 16.3499 46.3428 16.066C46.7223 14.9842 47.4129 14.3514 48.5726 14.281C49.2895 14.2378 50.0037 14.2459 50.7206 14.2486C50.9025 14.2486 51.1661 14.1539 51.2478 14.3081C51.3295 14.4622 51.1344 14.6515 51.0369 14.8138C49.0391 18.2034 47.0404 21.5902 45.0408 24.9744C44.9318 25.1588 44.8367 25.3513 44.7561 25.5504C44.6613 25.783 44.6929 25.9047 45.0012 25.902C46.6591 25.8777 48.3037 25.8858 49.9458 25.8858ZM39.5349 16.0957C39.4898 15.9193 39.4712 15.737 39.4795 15.5548C39.4795 14.9409 39.4795 14.3243 39.4795 13.7104C39.4795 13.5346 39.44 13.4616 39.2529 13.4643C37.7558 13.4643 36.2614 13.4643 34.7722 13.4832C34.68 13.4832 34.5403 13.4345 34.5482 13.6157C34.5482 13.7483 34.506 13.9078 34.7011 13.9511C34.7828 13.97 34.8645 13.9971 34.9436 14.0214C35.5761 14.208 35.7343 14.4244 35.816 15.0788C35.866 15.6597 35.8845 16.243 35.8713 16.8259C35.8713 19.1355 35.8845 21.4451 35.8555 23.7547C35.8555 24.6688 35.758 25.2584 34.709 25.4098C34.5034 25.4396 34.5403 25.5748 34.5324 25.7154C34.5245 25.8561 34.622 25.8966 34.7512 25.9074C35.4971 25.9669 36.2456 25.9074 36.9915 25.9074C38.2882 25.9264 39.5823 25.9534 40.8764 25.8723C40.9819 25.8723 41.1189 25.9155 41.14 25.7262C41.1485 25.6922 41.15 25.6568 41.1443 25.6221C41.1386 25.5875 41.1259 25.5545 41.107 25.5252C41.0882 25.4959 41.0635 25.4709 41.0347 25.452C41.0059 25.4331 40.9735 25.4205 40.9397 25.4152C40.8685 25.3951 40.7964 25.3789 40.7236 25.3665C39.8169 25.2259 39.5402 24.9203 39.5322 23.9846C39.5322 22.5269 39.5112 21.0692 39.5322 19.6142C39.5379 18.8904 39.6435 18.1711 39.8459 17.4777C39.9844 16.9787 40.2283 16.517 40.5602 16.1255C41.0319 15.5846 41.5433 15.5602 42.0757 16.0281C42.1864 16.1282 42.2918 16.2336 42.4104 16.3256C42.5817 16.4776 42.7829 16.5901 43.0002 16.6554C43.2176 16.7207 43.4461 16.7374 43.6702 16.7042C44.3792 16.5663 44.8563 15.9443 44.9327 15.0518C45.0434 13.7861 44.3239 13.0289 43.0878 13.1046C42.6773 13.1411 42.2818 13.2804 41.936 13.5103C41.0425 14.0674 40.4152 14.8922 39.8274 15.7604C39.7616 15.8848 39.7194 16.0362 39.5349 16.0957ZM29.4877 33.653C29.3751 33.5242 29.2858 33.3758 29.2242 33.2148C28.6048 31.8464 27.9828 30.4806 27.3792 29.1095C27.3542 29.0221 27.2995 28.9468 27.225 28.8972C27.1506 28.8476 27.0613 28.827 26.9733 28.839C26.5832 28.8607 26.1826 28.839 25.8057 28.839C25.7135 28.839 25.558 28.7633 25.5422 28.9148C25.5263 29.0662 25.6845 29.0446 25.7846 29.0473C25.929 29.0462 26.0685 29.1015 26.1747 29.2019C26.2808 29.3023 26.3459 29.4404 26.3566 29.5882C26.3851 29.7579 26.3992 29.9298 26.3987 30.102C26.3987 31.3767 26.3987 32.6505 26.3987 33.9234C26.4057 34.1173 26.3862 34.3112 26.3408 34.4994C26.3255 34.6238 26.2669 34.7383 26.1759 34.8218C26.0848 34.9053 25.9674 34.9522 25.8453 34.9538C25.7775 34.9451 25.7089 34.9602 25.6506 34.9965C25.5922 35.0328 25.5475 35.0883 25.5237 35.1539H27.5189C27.5716 35.1539 27.627 35.1161 27.6111 35.0512C27.5953 34.9862 27.511 34.9944 27.453 34.9835C26.9259 34.8916 26.8758 34.8456 26.8284 34.3128C26.7018 32.9444 26.7862 31.5732 26.7862 30.2048C26.7862 30.1588 26.7625 30.0939 26.8653 30.0723C26.9812 30.3049 27.1104 30.5374 27.2184 30.7808C27.8282 32.1421 28.4344 33.5042 29.037 34.8673C29.0818 34.97 29.1003 35.1188 29.2426 35.1215C29.3849 35.1242 29.3981 34.9673 29.4403 34.8673C30.1133 33.369 30.7836 31.8707 31.4513 30.3725C31.5014 30.2562 31.5225 30.102 31.7149 30.0263C31.7149 30.4942 31.7149 30.9215 31.7149 31.3515C31.7149 32.3629 31.757 33.3798 31.6674 34.3913C31.6761 34.5389 31.6275 34.6841 31.5322 34.7951C31.4368 34.906 31.3026 34.9738 31.1587 34.9835C31.0797 34.9835 30.9611 34.9835 30.9453 35.1323C31.736 35.1052 32.5267 35.2161 33.3543 35.0457C32.6795 34.8673 32.5794 34.7753 32.5636 34.1262C32.5425 32.7109 32.5425 31.2974 32.5636 29.8857C32.5636 29.2474 32.6505 29.1852 33.2436 28.9743C33.2594 28.9743 33.2646 28.9418 33.2752 28.9256C32.8486 28.8615 32.4169 28.8407 31.9863 28.8634C31.8893 28.8608 31.794 28.8905 31.7147 28.948C31.6353 29.0055 31.5763 29.0878 31.5462 29.1825C30.9584 30.5158 30.3575 31.8464 29.7618 33.177C29.7011 33.3522 29.6081 33.5138 29.4877 33.653ZM41.936 31.0594L41.625 30.9512C41.3594 30.8308 41.0675 30.7848 40.779 30.8181C40.4905 30.8513 40.2158 30.9626 39.9829 31.1405C39.5171 31.5415 39.2022 32.0966 39.0925 32.7103C38.9828 33.324 39.0852 33.9576 39.382 34.5022C39.8222 35.2107 40.7816 35.4866 41.393 35.0863C41.5564 34.9781 41.7357 34.8997 41.9202 34.7969C41.9306 34.8586 41.9359 34.921 41.936 34.9835C41.8991 35.3135 42.0809 35.3135 42.2971 35.2296C42.5606 35.1269 42.8242 35.0133 43.0878 34.897C43.1826 34.8537 43.3118 34.851 43.3513 34.6915C43.3086 34.6761 43.2644 34.6652 43.2195 34.659C42.7978 34.659 42.7188 34.5725 42.6924 34.1181C42.6924 33.9234 42.6924 33.7287 42.6924 33.534C42.6924 31.9708 42.6924 30.4076 42.6924 28.8445C42.6924 28.6146 42.6423 28.5497 42.3998 28.6092C42.0598 28.6957 41.7541 28.8796 41.4247 28.9689C41.3588 28.9878 41.2955 29.0257 41.3008 29.096C41.3008 29.2177 41.4141 29.1717 41.4721 29.169C41.7673 29.1555 41.8885 29.3204 41.9175 29.5936C41.9591 30.081 41.9653 30.571 41.936 31.0594ZM55.6124 34.4454C55.5714 34.4406 55.5298 34.4451 55.4906 34.4587C55.4514 34.4722 55.4156 34.4945 55.3858 34.5238C55.1037 34.7428 55.0036 34.7023 54.9324 34.3399C54.8877 33.9867 54.8718 33.6303 54.885 33.2743C54.9122 32.7142 54.8973 32.1527 54.8402 31.5949C54.8275 31.4653 54.7819 31.3413 54.7079 31.2355C54.6339 31.1296 54.5341 31.0456 54.4185 30.9918C54.1349 30.8582 53.8265 30.789 53.5144 30.789C53.2024 30.789 52.894 30.8582 52.6104 30.9918C52.4346 31.0671 52.286 31.1965 52.1849 31.3621C52.0839 31.5278 52.0355 31.7216 52.0464 31.9167C52.0701 32.1168 52.1571 32.2764 52.3758 32.2791C52.467 32.2837 52.5563 32.2519 52.6251 32.1903C52.6938 32.1288 52.7368 32.0424 52.7448 31.9492C52.7659 31.8329 52.7633 31.7112 52.7765 31.5949C52.7777 31.5243 52.7939 31.4548 52.824 31.3913C52.854 31.3278 52.8972 31.2718 52.9504 31.2271C53.0572 31.1373 53.1873 31.0818 53.3246 31.0674C53.462 31.0529 53.6004 31.0803 53.7227 31.1459C54.0943 31.3434 54.118 31.7139 54.1496 32.0898C54.176 32.3981 53.9493 32.3981 53.7833 32.4792C53.4802 32.6253 53.1692 32.7497 52.8634 32.9038C52.5825 33.0251 52.332 33.21 52.1307 33.4447C51.9499 33.6448 51.8494 33.9075 51.8494 34.1803C51.8494 34.4531 51.9499 34.7159 52.1307 34.9159C52.31 35.1031 52.5495 35.2169 52.8046 35.2363C53.0596 35.2558 53.3128 35.1794 53.5171 35.0214C53.6462 34.9295 53.7806 34.8294 53.8966 34.732C54.0126 34.6347 54.1391 34.6157 54.1944 34.8375C54.2023 34.903 54.2241 34.9659 54.2583 35.0217C54.2925 35.0776 54.3383 35.125 54.3924 35.1606C54.4465 35.1963 54.5076 35.2192 54.5713 35.2279C54.635 35.2365 54.6998 35.2307 54.7611 35.2107C54.9546 35.1677 55.1343 35.0748 55.2832 34.941C55.4321 34.8071 55.5454 34.6365 55.6124 34.4454ZM37.9192 33.5935C37.8549 33.6231 37.7971 33.6656 37.7491 33.7186C37.7011 33.7715 37.664 33.8338 37.6398 33.9018C37.5286 34.1245 37.3502 34.3043 37.1313 34.4145C36.9123 34.5246 36.6645 34.5592 36.4248 34.513C35.7026 34.3913 35.1491 33.6692 35.107 32.8281C35.107 32.6117 35.1518 32.5225 35.3837 32.5252C36.1191 32.5252 36.8571 32.5117 37.5924 32.5036C37.9904 32.5036 38.022 32.4576 37.9192 32.0573C37.8564 31.7482 37.704 31.4658 37.482 31.2472C37.26 31.0286 36.9788 30.8839 36.6752 30.8322C36.3702 30.7599 36.0516 30.7757 35.7547 30.8779C35.4579 30.98 35.1945 31.1645 34.9936 31.411C34.3321 32.1871 34.2636 33.6584 34.8381 34.5049C35.03 34.8045 35.3076 35.0357 35.6328 35.167C35.9579 35.2982 36.3147 35.3229 36.6541 35.2378C37.0009 35.1247 37.3068 34.9077 37.5323 34.6146C37.7578 34.3215 37.8926 33.9659 37.9192 33.5935ZM50.7154 33.5313C50.5124 33.5664 50.4834 33.7179 50.4281 33.8369C50.3309 34.0547 50.1733 34.2383 49.975 34.3647C49.7767 34.4912 49.5466 34.555 49.3132 34.5481C49.0952 34.5574 48.8798 34.4972 48.6967 34.3756C48.5135 34.254 48.3716 34.0771 48.2906 33.8693C48.1794 33.6605 48.0977 33.4365 48.0481 33.204C47.9453 32.5712 47.9479 31.9492 48.3775 31.4218C48.4827 31.2914 48.6216 31.1941 48.7782 31.141C48.9349 31.0879 49.1029 31.0812 49.2631 31.1216C49.5768 31.1811 49.6585 31.4461 49.7085 31.7193C49.7128 31.8339 49.7583 31.9429 49.8361 32.0253C49.9139 32.1076 50.0187 32.1576 50.1302 32.1655C50.2124 32.1881 50.2994 32.1823 50.378 32.149C50.4566 32.1158 50.5223 32.057 50.5651 31.9816C50.6107 31.8766 50.6225 31.7595 50.5988 31.6471C50.5751 31.5348 50.5172 31.4331 50.4333 31.3569C50.1818 31.0787 49.8497 30.8909 49.4862 30.8213C49.1226 30.7517 48.7469 30.8038 48.4144 30.9701C47.0123 31.63 46.9095 33.945 47.9084 34.8321C48.1629 35.0784 48.4899 35.2311 48.838 35.2663C49.1862 35.3015 49.5359 35.2173 49.8324 35.0268C50.085 34.8677 50.297 34.649 50.4505 34.3888C50.6041 34.1287 50.6949 33.8347 50.7154 33.5313ZM56.5428 35.0647L56.5903 35.1539H58.3193C58.3825 35.1539 58.4879 35.1918 58.4906 35.0755C58.4932 34.9592 58.401 34.9619 58.3245 34.97C58.0293 34.9998 57.945 34.7996 57.9002 34.5589C57.8791 34.443 57.8685 34.3253 57.8686 34.2074C57.8686 32.5991 57.8686 30.9909 57.8686 29.3826C57.8686 29.169 57.8396 28.9526 57.8264 28.739C57.8264 28.6173 57.7526 28.5416 57.6419 28.5821C57.2495 28.7172 56.8694 28.8873 56.5059 29.0906C57.0884 29.361 57.0963 29.361 57.0989 30.0425C57.0989 31.4353 57.0989 32.8254 57.0989 34.2182C57.0989 34.5427 57.0673 34.8483 56.6957 34.9673C56.6413 34.9937 56.59 35.0264 56.5428 35.0647ZM44.084 31.3542C44.2395 31.4002 44.3028 31.4407 44.3476 31.4326C44.6718 31.3758 44.7561 31.5732 44.7719 31.841C44.8247 32.7253 44.8036 33.6097 44.7719 34.4967C44.7785 34.5531 44.7738 34.6102 44.7582 34.6647C44.7426 34.7191 44.7164 34.7698 44.6812 34.8135C44.6459 34.8573 44.6024 34.8932 44.5532 34.9192C44.504 34.9452 44.4502 34.9606 44.3951 34.9646C44.3239 34.9646 44.2026 34.9646 44.2132 35.0944C44.2237 35.2242 44.3318 35.1918 44.4082 35.1918C44.9354 35.1918 45.4414 35.1918 45.958 35.1918C46.0397 35.1918 46.1504 35.2107 46.1609 35.0971C46.1715 34.9835 46.0687 34.9538 45.9844 34.9457C45.647 34.9159 45.5864 34.6752 45.5864 34.4048C45.5864 33.8233 45.5864 33.2392 45.5864 32.6577C45.5864 32.0763 45.5864 31.5759 45.5706 31.0351C45.5706 30.9296 45.5995 30.7646 45.4045 30.8079C44.9431 30.9303 44.4992 31.1139 44.084 31.3542ZM45.2174 28.5713C45.1601 28.5676 45.1026 28.576 45.0487 28.5962C44.9947 28.6163 44.9454 28.6477 44.9038 28.6883C44.8622 28.729 44.8293 28.778 44.807 28.8323C44.7848 28.8866 44.7737 28.9451 44.7746 29.004C44.7666 29.0628 44.7711 29.1227 44.7878 29.1795C44.8045 29.2363 44.8329 29.2887 44.8713 29.3332C44.9096 29.3777 44.9568 29.4131 45.0097 29.437C45.0627 29.4609 45.12 29.4729 45.1778 29.4719C45.2937 29.4809 45.4083 29.4429 45.497 29.366C45.5858 29.2891 45.6415 29.1795 45.6523 29.0608C45.6554 28.9993 45.6467 28.9377 45.6265 28.8797C45.6063 28.8216 45.575 28.7683 45.5346 28.7227C45.4941 28.6772 45.4452 28.6404 45.3908 28.6144C45.3363 28.5884 45.2774 28.5737 45.2174 28.5713Z" fill="#4A9F50"/>
<path d="M39.2213 43.2429C39.1923 43.1617 39.1212 43.1807 39.0605 43.178C37.4185 43.1239 35.7791 43.0319 34.145 42.8453C32.5109 42.6587 30.9111 42.4234 29.2901 42.2179C26.7139 41.8761 24.1572 41.3941 21.6309 40.7737C20.4844 40.5033 19.351 40.1679 18.2045 39.8596C18.0874 39.8291 17.9824 39.762 17.9041 39.6676C18.1465 39.7163 18.3917 39.7622 18.6341 39.819C21.4683 40.4652 24.3325 40.9634 27.2159 41.3119C32.0698 41.8993 36.9571 42.1469 41.8438 42.0529C44.2339 41.9984 46.6197 41.8179 48.9917 41.512C50.3095 41.3579 51.6274 41.2605 52.9452 41.0928C54.0706 40.9468 55.1908 40.7521 56.3109 40.5519C62.2227 39.4999 67.9553 37.834 73.3558 35.1106C76.5186 33.515 79.4547 31.5651 81.7899 28.8066C83.0717 27.3672 84.0053 25.6384 84.5152 23.7601C85.0698 21.5922 84.8588 19.2929 83.9195 17.2694C83.1288 15.4737 81.9269 13.9808 80.5511 12.6205C78.5375 10.63 76.1865 9.14796 73.6984 7.86876C71.2103 6.58956 68.5088 5.62407 65.8863 4.57475C65.7121 4.53155 65.5538 4.43763 65.4303 4.30431C65.8362 4.40437 66.2448 4.49362 66.648 4.6072C70.1111 5.56341 73.4854 6.83036 76.7321 8.39342C79.7842 9.89709 82.6307 11.728 85.0186 14.2242C86.4027 15.6247 87.4754 17.3157 88.1629 19.1814C88.5762 20.3211 88.7657 21.5334 88.7205 22.7486C88.6752 23.9637 88.3962 25.1577 87.8994 26.2617C86.8293 28.7741 85.1688 30.7619 83.0998 32.4494C80.501 34.5111 77.6427 36.2031 74.6024 37.4797C71.4244 38.8222 68.1488 39.9073 64.8057 40.725C62.0299 41.4337 59.2128 41.9595 56.3716 42.299C52.7027 42.7452 49.0286 43.159 45.3255 43.1834C45.2412 43.1834 45.1331 43.132 45.0619 43.2429H44.6191C44.2243 43.1441 43.8121 43.1441 43.4173 43.2429H41.3008C40.9024 43.1808 40.4989 43.159 40.0963 43.178C39.9725 43.178 39.8328 43.1103 39.7194 43.2429H39.2213Z" fill="#E7373C"/>
<path d="M39.7195 43.2429C39.8275 43.1103 39.983 43.1698 40.0963 43.178C40.499 43.159 40.9024 43.1808 41.3008 43.2429H39.7195Z" fill="#F28E7D"/>
<path d="M43.4568 43.2429C43.8517 43.1441 44.2638 43.1441 44.6587 43.2429H43.4568Z" fill="#F28E7D"/>
<path d="M23.7579 7.61184C25.023 7.61184 26.2749 7.66052 27.5058 8.03914C29.5667 8.67337 31.3066 10.1047 32.358 12.0309C34.2557 15.3114 34.1002 20.6202 30.6475 23.9304C29.2796 25.235 27.5285 26.0369 25.6687 26.2103C23.9291 26.4392 22.1615 26.2541 20.5028 25.6694C19.0237 25.1397 17.7367 24.1605 16.8129 22.8622C14.5462 19.7034 14.2036 16.2606 15.7586 12.7205C17.0158 9.84571 19.3115 8.1987 22.3478 7.70109C22.8161 7.64705 23.2867 7.61727 23.7579 7.61184ZM28.8447 16.6041C28.8447 16.1822 28.8605 15.7603 28.8447 15.3411C28.7709 13.6563 28.4968 12.0336 27.6955 10.5191C26.3434 7.96612 22.7932 7.76599 21.1617 10.0053C20.2814 11.2087 19.8861 12.5907 19.7016 14.0619C19.4736 15.7301 19.4524 17.4212 19.6383 19.0949C19.8149 20.5607 20.0706 21.9887 20.8007 23.2922C22.2608 25.9101 25.3393 25.7127 26.7572 24.4037C27.4972 23.6748 28.0263 22.75 28.2859 21.7317C28.7755 20.0709 28.9649 18.3322 28.8447 16.6014V16.6041Z" fill="#FEFFFE"/>
<path d="M64.2311 24.3794C64.0229 24.4037 63.9517 24.5498 63.8542 24.6498C62.8843 25.7018 61.7457 26.3131 60.2776 26.2265C59.0178 26.1508 57.7447 24.9311 57.5418 23.66C57.4022 22.5718 57.3475 21.4739 57.3784 20.3768C57.3784 18.984 57.3784 17.5912 57.3784 16.1984C57.3788 15.7135 57.3383 15.2294 57.2571 14.7516C57.2417 14.5667 57.165 14.3929 57.0399 14.259C56.9147 14.1252 56.7486 14.0394 56.5692 14.016C56.4552 13.993 56.3433 13.9605 56.2345 13.9186C56.177 13.8909 56.1312 13.8427 56.1056 13.7831C56.0799 13.7235 56.0761 13.6563 56.0948 13.5941C56.1238 13.4615 56.2213 13.4345 56.3347 13.4372H60.7599C60.9813 13.4372 61.0499 13.5535 61.0446 13.7644C61.0446 14.3053 61.0446 14.8219 61.0446 15.3519C61.0446 17.8887 60.9998 20.4255 61.0973 22.9595C61.1038 23.1539 61.1303 23.347 61.1764 23.5356C61.3661 24.3172 61.9671 24.6174 62.6945 24.3469C63.0588 24.1773 63.3819 23.927 63.6407 23.614C63.8666 23.3926 64.0417 23.1225 64.1534 22.8231C64.265 22.5238 64.3105 22.2027 64.2865 21.8832C64.2364 19.9414 64.2706 17.9996 64.2627 16.0551C64.2627 15.69 64.2258 15.3222 64.1995 14.9571C64.1944 14.7337 64.1151 14.5189 63.9746 14.3482C63.8341 14.1775 63.641 14.0612 63.4272 14.0187C63.3561 13.9997 63.2875 13.97 63.2164 13.9538C63.0556 13.9186 62.9528 13.8483 62.9528 13.6509C62.9528 13.4534 63.1294 13.4561 63.2638 13.4561C64.7055 13.4561 66.1472 13.4129 67.5916 13.4561C67.8551 13.4561 67.9237 13.5616 67.9237 13.8185C67.9131 16.3012 67.9131 18.7839 67.9237 21.2666C67.9237 22.1428 67.9298 23.0172 67.9421 23.8899C67.946 24.1165 67.9725 24.3422 68.0212 24.5633C68.0363 24.7256 68.0998 24.8792 68.2031 25.0031C68.3064 25.127 68.4445 25.2152 68.5984 25.2556C68.7618 25.2962 68.9173 25.3719 69.0781 25.4125C69.2389 25.453 69.2257 25.5774 69.231 25.6829C69.2362 25.7884 69.1572 25.8749 69.0386 25.8858C68.9858 25.8858 68.9331 25.8858 68.8804 25.8858C67.5626 25.8858 66.2685 25.902 64.9638 25.902C64.297 25.902 64.2944 25.902 64.2654 25.2205C64.2311 24.9716 64.2311 24.6904 64.2311 24.3794Z" fill="#FEFEFE"/>
<path d="M49.9458 25.8858C48.3038 25.8858 46.6591 25.8858 45.0171 25.8858C44.7088 25.8858 44.6771 25.7668 44.772 25.5342C44.8526 25.3351 44.9477 25.1425 45.0567 24.9581C47.0545 21.5758 49.0532 18.1916 51.0528 14.8057C51.1503 14.6434 51.3427 14.4433 51.2636 14.2999C51.1846 14.1566 50.9184 14.2404 50.7365 14.2404C50.0196 14.2404 49.3053 14.2404 48.5884 14.2729C47.4288 14.3432 46.7435 14.9869 46.3587 16.0578C46.2585 16.3418 46.1452 16.623 46.0582 16.9097C45.995 17.118 45.85 17.0828 45.705 17.0747C45.5601 17.0666 45.5416 16.9422 45.5416 16.8042C45.5416 15.7793 45.5416 14.7543 45.5416 13.7293C45.5416 13.402 45.7314 13.4264 45.937 13.4264H53.4565C54.1418 13.4264 54.8271 13.4426 55.5097 13.4264C55.8023 13.4264 55.8286 13.5535 55.7733 13.7753C55.7382 13.8879 55.6885 13.9952 55.6257 14.0944L49.6216 24.2766C49.5162 24.4524 49.4292 24.6363 49.3264 24.8175C49.2236 24.9987 49.2685 25.0339 49.4556 25.0393C50.0665 25.055 50.6778 25.0261 51.2847 24.9527C51.6379 24.9095 51.9937 24.8527 52.339 24.7905C52.8568 24.71 53.347 24.4988 53.7656 24.1759C54.1842 23.8531 54.5182 23.4286 54.7375 22.9406C54.885 22.6323 55.001 22.3078 55.1433 21.9941C55.176 21.9145 55.2129 21.8368 55.254 21.7615C55.2808 21.7209 55.3197 21.6902 55.3648 21.6742C55.4099 21.6581 55.4589 21.6574 55.5044 21.6722C55.6336 21.6912 55.5914 21.802 55.594 21.8778C55.5827 22.3954 55.5422 22.9119 55.4728 23.4247C55.4016 24.1333 55.3384 24.8445 55.2909 25.5531C55.2751 25.8073 55.2013 25.902 54.9351 25.902C53.2694 25.902 51.6063 25.902 49.9405 25.902L49.9458 25.8858Z" fill="#FEFFFE"/>
<path d="M39.5349 16.0957C39.7115 16.0362 39.7616 15.8847 39.8433 15.763C40.4232 14.8949 41.0505 14.07 41.9519 13.5129C42.2976 13.283 42.6931 13.1437 43.1036 13.1073C44.3398 13.0315 45.0593 13.7888 44.9486 15.0545C44.8722 15.9469 44.3951 16.5689 43.6861 16.7069C43.4619 16.74 43.2334 16.7234 43.0161 16.658C42.7987 16.5927 42.5976 16.4803 42.4263 16.3283C42.3077 16.2363 42.2022 16.1308 42.0915 16.0308C41.5644 15.5629 41.0373 15.5926 40.576 16.1281C40.2442 16.5197 40.0003 16.9813 39.8618 17.4803C39.6594 18.1737 39.5538 18.8931 39.5481 19.6169C39.5165 21.0718 39.527 22.5295 39.5481 23.9872C39.5481 24.923 39.8328 25.2286 40.7394 25.3692C40.8123 25.3815 40.8844 25.3978 40.9556 25.4179C40.9894 25.4232 41.0218 25.4357 41.0506 25.4547C41.0794 25.4736 41.1041 25.4985 41.1229 25.5278C41.1418 25.5571 41.1545 25.5901 41.1602 25.6248C41.1658 25.6594 41.1644 25.6949 41.1559 25.7289C41.1348 25.9182 40.9977 25.8695 40.8923 25.8749C39.5982 25.9561 38.3041 25.929 37.0074 25.9101C36.2615 25.9101 35.5129 25.9588 34.767 25.9101C34.6379 25.9101 34.543 25.8939 34.5483 25.7181C34.5535 25.5423 34.5193 25.4476 34.7249 25.4125C35.7791 25.261 35.8608 24.6715 35.8714 23.7574C35.9004 21.4478 35.8872 19.1382 35.8872 16.8286C35.9004 16.2456 35.8819 15.6624 35.8318 15.0815C35.758 14.427 35.592 14.2107 34.9594 14.0241C34.8804 13.9997 34.7987 13.9727 34.717 13.9538C34.5219 13.9105 34.5667 13.7509 34.5641 13.6184C34.5641 13.4372 34.6959 13.4859 34.7881 13.4859C36.2852 13.4859 37.7796 13.4859 39.2687 13.467C39.4559 13.467 39.498 13.5373 39.4954 13.7131C39.4954 14.327 39.4954 14.9436 39.4954 15.5575C39.4821 15.7379 39.4955 15.9193 39.5349 16.0957Z" fill="#FEFEFE"/>
<path d="M29.4878 33.6529C29.6024 33.5185 29.6917 33.3636 29.7514 33.1959C30.347 31.8653 30.948 30.5347 31.5357 29.2014C31.5658 29.1066 31.6249 29.0244 31.7042 28.9669C31.7835 28.9094 31.8788 28.8797 31.9759 28.8823C32.4064 28.8596 32.8381 28.8804 33.2647 28.9445C33.2647 28.9607 33.2489 28.9877 33.2331 28.9931C32.6401 29.2041 32.5636 29.2636 32.5531 29.9045C32.5355 31.3163 32.5355 32.7298 32.5531 34.1451C32.5531 34.7996 32.6638 34.8861 33.3438 35.0646C32.5056 35.235 31.7202 35.1241 30.9348 35.1512C30.9506 34.9889 31.0692 35.0132 31.1483 35.0024C31.2921 34.9927 31.4264 34.9249 31.5217 34.8139C31.617 34.703 31.6656 34.5578 31.657 34.4101C31.7466 33.3987 31.6938 32.3818 31.7044 31.3704C31.7044 30.9403 31.7044 30.513 31.7044 30.0452C31.5225 30.1263 31.5014 30.2751 31.4408 30.3913C30.7679 31.8896 30.0975 33.3879 29.4298 34.8861C29.3876 34.9862 29.3876 35.1566 29.2321 35.1403C29.0766 35.1241 29.0714 34.9889 29.0266 34.8861C28.4204 33.5231 27.8142 32.161 27.208 30.7997C27.0999 30.5563 26.9707 30.3237 26.8548 30.0912C26.752 30.1128 26.7757 30.1777 26.7757 30.2237C26.7757 31.5921 26.6914 32.9633 26.8179 34.3317C26.8653 34.8726 26.9207 34.9105 27.4425 35.0024C27.5005 35.0024 27.5796 34.9862 27.6007 35.07C27.6218 35.1539 27.5611 35.1728 27.5084 35.1728H25.5185C25.5423 35.1072 25.587 35.0517 25.6454 35.0154C25.7037 34.9791 25.7723 34.964 25.84 34.9727C25.9622 34.971 26.0796 34.9241 26.1707 34.8406C26.2617 34.7571 26.3203 34.6427 26.3355 34.5183C26.381 34.33 26.4005 34.1361 26.3935 33.9423C26.3935 32.6676 26.3935 31.3938 26.3935 30.1209C26.394 29.9487 26.3799 29.7768 26.3514 29.6071C26.3407 29.4593 26.2756 29.3212 26.1694 29.2208C26.0633 29.1203 25.9238 29.0651 25.7794 29.0662C25.6793 29.0662 25.5159 29.0662 25.5369 28.9336C25.558 28.8011 25.7056 28.8606 25.8005 28.8579C26.188 28.8579 26.578 28.8579 26.9681 28.8579C27.0561 28.8458 27.1454 28.8665 27.2198 28.9161C27.2943 28.9657 27.349 29.041 27.374 29.1284C27.9881 30.4995 28.6101 31.8653 29.219 33.2337C29.2841 33.3884 29.3751 33.5303 29.4878 33.6529Z" fill="#FBFDFC"/>
<path d="M41.936 31.0594C41.9643 30.5781 41.9581 30.0955 41.9176 29.6152C41.8886 29.3447 41.7674 29.1771 41.4722 29.1906C41.4142 29.1906 41.3087 29.2393 41.3008 29.1176C41.3008 29.0472 41.3588 29.0094 41.4247 28.9905C41.7542 28.8904 42.0599 28.72 42.3999 28.6308C42.6424 28.5713 42.6925 28.6308 42.6925 28.866C42.6925 30.4292 42.6925 31.9924 42.6925 33.5556C42.6925 33.7503 42.6925 33.945 42.6925 34.1397C42.7109 34.5805 42.79 34.659 43.2196 34.6806C43.2645 34.6868 43.3086 34.6977 43.3514 34.7131C43.3145 34.8726 43.1853 34.8753 43.0878 34.9186C42.8243 35.0349 42.5607 35.1485 42.2971 35.2512C42.081 35.3351 41.8991 35.3351 41.936 35.0051C41.9359 34.9426 41.9307 34.8802 41.9202 34.8185C41.7278 34.9213 41.5486 34.9997 41.3931 35.1079C40.7816 35.5082 39.8117 35.2323 39.3821 34.5237C39.0796 33.977 38.9741 33.3386 39.084 32.7202C39.1938 32.1017 39.5121 31.5426 39.983 31.1405C40.2151 30.9613 40.4895 30.8485 40.778 30.8138C41.0665 30.7791 41.3588 30.8237 41.625 30.9431L41.936 31.0594ZM41.9545 33.1364C41.9545 32.8037 41.9808 32.4684 41.9545 32.1357C41.9524 31.9181 41.8864 31.7062 41.7651 31.5277C41.6437 31.3491 41.4728 31.2123 41.2745 31.1351C40.7763 30.9431 40.2202 31.2865 40.0225 31.9167C39.8183 32.522 39.8183 33.1801 40.0225 33.7854C40.0787 34.0059 40.1895 34.2078 40.3442 34.3713C40.499 34.5348 40.6923 34.6544 40.9055 34.7185C41.0284 34.7633 41.1603 34.7763 41.2893 34.7561C41.4183 34.736 41.5404 34.6834 41.6448 34.6031C41.7492 34.5227 41.8326 34.4172 41.8875 34.2957C41.9425 34.1743 41.9673 34.0408 41.9598 33.9071L41.9545 33.1364Z" fill="#FBFDFC"/>
<path d="M55.6125 34.4453C55.5488 34.639 55.4379 34.8128 55.2902 34.95C55.1426 35.0873 54.9632 35.1836 54.7691 35.2296C54.7078 35.2496 54.643 35.2554 54.5793 35.2468C54.5155 35.2381 54.4544 35.2151 54.4003 35.1795C54.3462 35.1439 54.3005 35.0965 54.2662 35.0406C54.232 34.9848 54.2102 34.9219 54.2024 34.8564C54.1471 34.6346 54.0522 34.6373 53.9046 34.7509C53.757 34.8645 53.6542 34.9483 53.525 35.0403C53.3208 35.1982 53.0676 35.2746 52.8125 35.2552C52.5575 35.2358 52.318 35.1219 52.1387 34.9348C51.9579 34.7348 51.8574 34.472 51.8574 34.1992C51.8574 33.9264 51.9579 33.6636 52.1387 33.4636C52.34 33.2289 52.5905 33.0439 52.8714 32.9227C53.1771 32.7794 53.4881 32.6523 53.7912 32.4981C53.9573 32.417 54.184 32.417 54.1576 32.1087C54.126 31.7327 54.1023 31.3622 53.7306 31.1648C53.6083 31.0991 53.4699 31.0718 53.3326 31.0862C53.1953 31.1007 53.0652 31.1562 52.9584 31.2459C52.9051 31.2906 52.862 31.3467 52.8319 31.4102C52.8019 31.4737 52.7857 31.5432 52.7844 31.6138C52.7844 31.73 52.7844 31.8517 52.7528 31.968C52.7447 32.0613 52.7018 32.1477 52.633 32.2092C52.5642 32.2707 52.4749 32.3025 52.3838 32.298C52.165 32.298 52.0781 32.1357 52.0543 31.9356C52.0435 31.7405 52.0919 31.5467 52.1929 31.381C52.294 31.2154 52.4426 31.0859 52.6184 31.0107C52.902 30.877 53.2104 30.8079 53.5224 30.8079C53.8345 30.8079 54.1429 30.877 54.4264 31.0107C54.5421 31.0645 54.6419 31.1485 54.7159 31.2544C54.7899 31.3602 54.8355 31.4841 54.8481 31.6138C54.9052 32.1716 54.9202 32.733 54.893 33.2932C54.8798 33.6491 54.8957 34.0056 54.9404 34.3588C55.0116 34.7212 55.1117 34.7617 55.3937 34.5427C55.4211 34.511 55.4548 34.4859 55.4926 34.4691C55.5304 34.4523 55.5713 34.4442 55.6125 34.4453ZM54.155 33.496C54.155 33.2797 54.155 33.066 54.155 32.8524C54.155 32.7875 54.1866 32.7009 54.0574 32.7036C53.6753 32.7036 52.8371 33.2851 52.6922 33.6475C52.4919 34.1532 52.7976 34.6995 53.272 34.6806C53.5778 34.6509 53.8652 34.5177 54.0891 34.302C54.2551 34.164 54.1365 33.9396 54.1602 33.7611C54.1641 33.6727 54.1624 33.5842 54.155 33.496Z" fill="#FAFCFA"/>
<path d="M37.9193 33.5934C37.8934 33.9645 37.7602 34.3192 37.5367 34.6121C37.3132 34.9051 37.0096 35.1229 36.6647 35.2377C36.3253 35.3229 35.9685 35.2981 35.6434 35.1669C35.3182 35.0357 35.0406 34.8044 34.8487 34.5048C34.2742 33.6583 34.3427 32.1871 35.0042 31.4109C35.2051 31.1645 35.4685 30.98 35.7653 30.8778C36.0622 30.7757 36.3808 30.7599 36.6858 30.8322C36.9894 30.8839 37.2706 31.0285 37.4926 31.2472C37.7146 31.4658 37.867 31.7482 37.9298 32.0573C38.0326 32.4575 38.001 32.5008 37.603 32.5035C36.8677 32.5035 36.1297 32.5306 35.3943 32.5252C35.1624 32.5252 35.1097 32.6117 35.1176 32.828C35.1492 33.6691 35.7027 34.3912 36.4354 34.5129C36.6751 34.5591 36.9229 34.5246 37.1419 34.4144C37.3608 34.3043 37.5392 34.1244 37.6504 33.9017C37.6967 33.7665 37.7934 33.6556 37.9193 33.5934ZM36.048 32.2655H36.3115L36.6884 32.252C37.0126 32.252 37.0759 32.1628 36.9994 31.8436C36.9728 31.7181 36.9167 31.6011 36.836 31.5029C36.7253 31.3517 36.5729 31.2381 36.3986 31.1769C36.2242 31.1157 36.036 31.1096 35.8582 31.1594C35.6752 31.2407 35.5144 31.3668 35.3899 31.5266C35.2654 31.6864 35.1809 31.8751 35.1439 32.0762C35.1439 32.2358 35.2256 32.2547 35.3363 32.2574C35.5656 32.2682 35.8081 32.2655 36.048 32.2655Z" fill="#FBFDFB"/>
<path d="M50.7154 33.5312C50.695 33.8346 50.6042 34.1287 50.4506 34.3888C50.297 34.6489 50.0851 34.8677 49.8325 35.0268C49.536 35.2173 49.1863 35.3015 48.8381 35.2662C48.4899 35.231 48.163 35.0783 47.9085 34.832C46.9095 33.9477 47.0123 31.63 48.4145 30.9701C48.7469 30.8038 49.1227 30.7516 49.4862 30.8213C49.8498 30.8909 50.1819 31.0787 50.4334 31.3568C50.5172 31.4331 50.5752 31.5348 50.5989 31.6471C50.6226 31.7594 50.6108 31.8766 50.5652 31.9816C50.5224 32.0569 50.4567 32.1157 50.3781 32.149C50.2995 32.1822 50.2124 32.188 50.1303 32.1655C50.0188 32.1575 49.914 32.1076 49.8362 32.0252C49.7583 31.9429 49.7129 31.8339 49.7086 31.7192C49.6585 31.4488 49.5768 31.1783 49.2632 31.1215C49.103 31.0811 48.935 31.0879 48.7783 31.141C48.6217 31.1941 48.4828 31.2914 48.3776 31.4217C47.948 31.9491 47.9454 32.5711 48.0482 33.204C48.0978 33.4364 48.1794 33.6604 48.2906 33.8693C48.3717 34.0771 48.5136 34.2539 48.6967 34.3755C48.8799 34.4971 49.0953 34.5574 49.3133 34.5481C49.5466 34.555 49.7768 34.4912 49.9751 34.3647C50.1734 34.2382 50.3309 34.0546 50.4282 33.8368C50.4835 33.7178 50.5257 33.5745 50.7154 33.5312Z" fill="#FBFDFB"/>
<path d="M56.5429 35.0646C56.5916 35.025 56.6447 34.9914 56.701 34.9646C57.0727 34.8456 57.1043 34.54 57.1043 34.2154C57.1043 32.8226 57.1043 31.4326 57.1043 30.0398C57.1043 29.3583 57.1043 29.3583 56.5113 29.0878C56.873 28.8849 57.2513 28.7147 57.642 28.5794C57.7527 28.5388 57.8185 28.6145 57.8265 28.7362C57.8265 28.9499 57.866 29.1662 57.8686 29.3799C57.8686 30.9881 57.8686 32.5964 57.8686 34.2046C57.8686 34.3226 57.8792 34.4403 57.9003 34.5562C57.9451 34.7969 58.0294 34.997 58.3246 34.9673C58.401 34.9673 58.4906 34.9673 58.4906 35.0727C58.4906 35.1782 58.3826 35.1512 58.3193 35.1512H56.5877L56.5429 35.0646Z" fill="#FDFEFD"/>
<path d="M44.0841 31.3541C44.5045 31.1144 44.9538 30.9326 45.4204 30.8132C45.6154 30.7727 45.5864 30.9349 45.5864 31.0404C45.5864 31.5813 45.5996 32.1222 45.6023 32.6631C45.6049 33.204 45.6023 33.8287 45.6023 34.4101C45.6023 34.6806 45.6629 34.9294 46.0002 34.951C46.0846 34.951 46.1847 34.9997 46.1768 35.1025C46.1689 35.2053 46.0556 35.1971 45.9739 35.1971C45.4467 35.1971 44.9407 35.1971 44.4241 35.1971C44.3477 35.1971 44.237 35.2269 44.2291 35.0998C44.2212 34.9727 44.3398 34.9808 44.4109 34.97C44.4661 34.966 44.5199 34.9505 44.5691 34.9246C44.6183 34.8986 44.6618 34.8626 44.6971 34.8189C44.7323 34.7751 44.7585 34.7245 44.7741 34.6701C44.7897 34.6156 44.7944 34.5585 44.7878 34.5021C44.8168 33.615 44.8379 32.7307 44.7878 31.8463C44.772 31.5759 44.6877 31.3812 44.3635 31.438C44.3029 31.4407 44.2396 31.4109 44.0841 31.3541Z" fill="#F8FBF8"/>
<path d="M45.2174 28.5713C45.2775 28.5737 45.3364 28.5883 45.3909 28.6143C45.4453 28.6403 45.4942 28.6771 45.5347 28.7227C45.5751 28.7682 45.6064 28.8216 45.6266 28.8796C45.6468 28.9377 45.6555 28.9992 45.6523 29.0608C45.6416 29.1794 45.5858 29.289 45.4971 29.3659C45.4084 29.4428 45.2937 29.4809 45.1779 29.4718C45.1201 29.4728 45.0627 29.4609 45.0098 29.437C44.9569 29.413 44.9096 29.3776 44.8713 29.3332C44.833 29.2887 44.8045 29.2363 44.7878 29.1794C44.7711 29.1226 44.7666 29.0628 44.7746 29.004C44.7738 28.9451 44.7848 28.8866 44.8071 28.8323C44.8293 28.7779 44.8623 28.7289 44.9038 28.6883C44.9454 28.6476 44.9947 28.6163 45.0487 28.5961C45.1027 28.576 45.1601 28.5675 45.2174 28.5713Z" fill="#FBFDFB"/>
<path d="M85.9226 3.328C86.2542 3.32569 86.583 3.39042 86.8902 3.51849C87.1974 3.64656 87.477 3.83546 87.7131 4.07442C87.9491 4.31337 88.137 4.59769 88.266 4.91114C88.3949 5.22459 88.4625 5.56104 88.4647 5.90128C88.467 6.24151 88.4039 6.57887 88.2791 6.89409C88.1543 7.20931 87.9702 7.49622 87.7373 7.73844C87.5044 7.98065 87.2273 8.17343 86.9218 8.30577C86.6164 8.4381 86.2885 8.5074 85.9569 8.50971C85.2872 8.51437 84.6432 8.24588 84.1664 7.7633C83.6897 7.28072 83.4193 6.62357 83.4148 5.93644C83.4102 5.2493 83.6719 4.58845 84.1422 4.09928C84.6125 3.6101 85.253 3.33266 85.9226 3.328ZM83.8352 5.90804C83.8331 6.48185 84.0532 7.03301 84.4472 7.44028C84.8411 7.84755 85.3766 8.07755 85.9358 8.07971C86.495 8.08186 87.0322 7.85598 87.4291 7.45175C87.826 7.04753 88.0501 6.49808 88.0522 5.92427C88.0533 5.64014 87.9998 5.35859 87.8948 5.09569C87.7898 4.83279 87.6353 4.59368 87.4403 4.39203C87.2452 4.19037 87.0133 4.03011 86.7579 3.92039C86.5025 3.81068 86.2285 3.75366 85.9516 3.7526C85.6747 3.75153 85.4003 3.80644 85.1441 3.91418C84.8879 4.02193 84.6549 4.1804 84.4583 4.38055C84.2618 4.5807 84.1056 4.81861 83.9987 5.0807C83.8918 5.34279 83.8362 5.62392 83.8352 5.90804Z" fill="#54A255"/>
<path d="M28.8447 16.6014C28.9624 18.3278 28.7722 20.0618 28.2833 21.7182C28.0219 22.7326 27.4929 23.6534 26.7546 24.3794C25.3366 25.6883 22.2582 25.8857 20.798 23.2678C20.068 21.9643 19.8123 20.5364 19.6357 19.0706C19.4472 17.4009 19.4649 15.7135 19.6884 14.0484C19.8729 12.588 20.2683 11.206 21.1486 9.99174C22.7801 7.75247 26.3303 7.9526 27.6824 10.5056C28.4731 12.0201 28.7577 13.6427 28.8315 15.3276C28.8605 15.7576 28.8447 16.1795 28.8447 16.6014Z" fill="#4A9F50"/>
<path d="M41.9545 33.1364V33.9125C41.962 34.0462 41.9372 34.1797 41.8823 34.3011C41.8273 34.4226 41.7439 34.5282 41.6395 34.6085C41.5352 34.6888 41.413 34.7414 41.284 34.7615C41.155 34.7817 41.0232 34.7687 40.9002 34.7239C40.6871 34.6598 40.4937 34.5402 40.339 34.3767C40.1842 34.2132 40.0734 34.0113 40.0173 33.7908C39.813 33.1855 39.813 32.5274 40.0173 31.9221C40.2229 31.2919 40.7711 30.9485 41.2692 31.1405C41.4675 31.2177 41.6385 31.3546 41.7598 31.5331C41.8811 31.7116 41.9471 31.9235 41.9492 32.1411C41.9809 32.4738 41.9492 32.8091 41.9492 33.1418L41.9545 33.1364Z" fill="#4CA051"/>
<path d="M54.155 33.4961C54.1608 33.5861 54.1608 33.6764 54.155 33.7665C54.1312 33.9531 54.2498 34.1776 54.0838 34.3074C53.8599 34.5231 53.5725 34.6563 53.2667 34.686C52.7923 34.7049 52.476 34.1451 52.6869 33.6529C52.8319 33.2905 53.67 32.7172 54.0522 32.7091C54.1813 32.7091 54.1497 32.7929 54.1497 32.8578C54.1497 33.0715 54.1497 33.2851 54.1497 33.5015L54.155 33.4961Z" fill="#4DA152"/>
<path d="M36.048 32.2655C35.8081 32.2655 35.5656 32.2655 35.3258 32.2655C35.2151 32.2655 35.1202 32.2439 35.1334 32.0843C35.1704 31.8833 35.2548 31.6946 35.3794 31.5347C35.5039 31.3749 35.6647 31.2488 35.8477 31.1675C36.0254 31.1177 36.2137 31.1238 36.388 31.185C36.5624 31.2463 36.7148 31.3598 36.8255 31.511C36.9062 31.6092 36.9623 31.7262 36.9889 31.8517C37.0653 32.1709 37.0021 32.2493 36.6779 32.2601L36.301 32.2736H36.0374L36.048 32.2655Z" fill="#54A255"/>
<path d="M86.2547 6.12169C86.5868 6.47481 86.8658 6.87679 87.0823 7.31435C86.745 7.41441 86.5262 7.34139 86.3891 7.01415C86.2835 6.80301 86.1581 6.60285 86.0149 6.41647C85.9602 6.33724 85.8874 6.27308 85.8028 6.22968C85.7182 6.18627 85.6245 6.16497 85.5299 6.16766C85.3481 6.16766 85.2664 6.20012 85.2664 6.41106C85.2664 6.62201 85.2664 6.90598 85.2664 7.15478C85.2664 7.3495 85.1662 7.3495 85.0265 7.35221C84.8868 7.35491 84.8209 7.31435 84.8209 7.15478C84.8209 6.34345 84.8209 5.56187 84.8209 4.76406C84.8209 4.64236 84.8209 4.55582 84.987 4.56122C85.4072 4.54448 85.8281 4.55622 86.2468 4.59638C86.4164 4.60871 86.5764 4.68183 86.6988 4.80296C86.8212 4.92408 86.8982 5.08549 86.9163 5.25897C86.9213 5.43419 86.8708 5.60635 86.7724 5.74968C86.6741 5.89302 86.5331 5.99981 86.3707 6.05408C86.3233 6.06489 86.2705 6.05137 86.2547 6.12169ZM85.8198 4.94525C85.182 4.94525 85.2927 4.86683 85.2743 5.43476C85.2743 5.49967 85.2743 5.56457 85.2743 5.62948C85.2743 5.73495 85.3243 5.78093 85.4298 5.78093C85.6716 5.795 85.9143 5.77773 86.1519 5.72954C86.2417 5.7142 86.3223 5.66417 86.3772 5.58972C86.4321 5.51528 86.4571 5.42208 86.4471 5.32929C86.4453 5.24179 86.4129 5.15788 86.3558 5.09285C86.2987 5.02783 86.2207 4.986 86.1361 4.975C86.0316 4.95703 85.9258 4.94709 85.8198 4.94525Z" fill="#54A255"/>
</g>
<defs>
<clipPath id="clip0_193_1429">
<rect width="87.5342" height="40.2286" fill="white" transform="translate(1.23288 3.01428)"/>
</clipPath>
</defs>
</svg>
