<svg width="50" height="51" viewBox="0 0 50 51" fill="none" xmlns="http://www.w3.org/2000/svg">
<path d="M44.7918 25.25C44.7918 36.756 36.5061 45.0417 25.0002 45.0417C13.4942 45.0417 5.2085 36.756 5.2085 25.25C5.2085 13.7441 13.4942 5.45837 25.0002 5.45837C36.5061 5.45837 44.7918 13.7441 44.7918 25.25Z" stroke="#03A300" stroke-width="1.5"/>
<path d="M21.2921 16.441C21.0939 16.9195 21.0939 17.5262 21.0939 18.7396V21.2838C21.0939 21.3121 21.0939 21.3262 21.0851 21.335C21.0763 21.3438 21.0622 21.3438 21.0339 21.3438H18.4897C17.2764 21.3438 16.6697 21.3438 16.1911 21.542C15.553 21.8063 15.046 22.3133 14.7817 22.9514C14.5835 23.43 14.5835 24.0367 14.5835 25.25C14.5835 26.4634 14.5835 27.0701 14.7817 27.5487C15.046 28.1868 15.553 28.6938 16.1911 28.9581C16.6697 29.1563 17.2764 29.1563 18.4897 29.1563H21.0339C21.0622 29.1563 21.0763 29.1563 21.0851 29.1651C21.0939 29.1739 21.0939 29.188 21.0939 29.2163V31.7605C21.0939 32.9738 21.0939 33.5805 21.2921 34.0591C21.5565 34.6972 22.0634 35.2042 22.7015 35.4685C23.1801 35.6667 23.7868 35.6667 25.0002 35.6667C26.2136 35.6667 26.8202 35.6667 27.2988 35.4685C27.9369 35.2042 28.4439 34.6972 28.7082 34.0591C28.9064 33.5805 28.9064 32.9738 28.9064 31.7605V29.2163C28.9064 29.188 28.9064 29.1739 28.9152 29.1651C28.924 29.1563 28.9381 29.1563 28.9664 29.1563H31.5106C32.724 29.1563 33.3307 29.1563 33.8092 28.9581C34.4473 28.6938 34.9543 28.1868 35.2186 27.5487C35.4168 27.0701 35.4168 26.4634 35.4168 25.25C35.4168 24.0367 35.4168 23.43 35.2186 22.9514C34.9543 22.3133 34.4473 21.8063 33.8092 21.542C33.3307 21.3438 32.724 21.3438 31.5106 21.3438H28.9664C28.9381 21.3438 28.924 21.3438 28.9152 21.335C28.9064 21.3262 28.9064 21.3121 28.9064 21.2838V18.7396C28.9064 17.5262 28.9064 16.9195 28.7082 16.441C28.4439 15.8029 27.9369 15.2959 27.2988 15.0316C26.8202 14.8334 26.2136 14.8334 25.0002 14.8334C23.7868 14.8334 23.1801 14.8334 22.7015 15.0316C22.0634 15.2959 21.5565 15.8029 21.2921 16.441Z" stroke="#03A300" stroke-width="1.5"/>
</svg>
