<svg width="50" height="51" viewBox="0 0 50 51" fill="none" xmlns="http://www.w3.org/2000/svg">
<path d="M17.7085 32.5416C15.6252 32.5416 11.4585 34.625 11.4585 39.8333" stroke="#03A300" stroke-width="1.5" stroke-linecap="round"/>
<path d="M32.2915 32.5416C34.3748 32.5416 38.5415 34.625 38.5415 39.8333" stroke="#03A300" stroke-width="1.5" stroke-linecap="round"/>
<path d="M29.1668 32.5416L25.379 37.0871M25.379 37.0871L23.9585 38.7916M25.379 37.0871L20.8335 32.5416" stroke="#03A300" stroke-width="1.5" stroke-linecap="round"/>
<path d="M17.7083 11.7084C14.5833 13.7917 11.4583 24.8334 19.7916 27.3334" stroke="#03A300" stroke-width="1.5" stroke-linecap="round"/>
<path d="M32.2917 11.7084C35.4167 13.7917 38.5417 24.8334 30.2084 27.3334" stroke="#03A300" stroke-width="1.5" stroke-linecap="round"/>
<path d="M19.0088 20.0416C18.8404 20.7017 18.75 21.401 18.75 22.125C18.75 26.152 21.5482 30.4583 25 30.4583C28.4518 30.4583 31.25 26.152 31.25 22.125C31.25 21.401 31.1596 20.7017 30.9912 20.0416" stroke="#03A300" stroke-width="1.5" stroke-linecap="round"/>
<path d="M27.0835 15.875C26.1676 16.7909 23.641 19.3175 18.0874 19.9142" stroke="#03A300" stroke-width="1.5" stroke-linecap="round"/>
<path d="M26.0415 17.9584C27.0832 19 28.1248 20.0417 31.2498 20.0417" stroke="#03A300" stroke-width="1.5" stroke-linecap="round"/>
<path d="M33.1832 8.25017C33.266 8.10668 33.217 7.92295 33.072 7.8427C30.6029 6.47578 27.8254 5.75745 24.9998 5.75745C22.1743 5.75745 19.3968 6.47578 16.9277 7.8427C16.7827 7.92294 16.7337 8.10668 16.8165 8.25017L20.0128 13.7863C20.0956 13.9298 20.2789 13.9785 20.4249 13.9002C21.8302 13.1459 23.4018 12.75 24.9998 12.75C26.5979 12.75 28.1694 13.1459 29.5748 13.9002C29.7208 13.9785 29.904 13.9298 29.9869 13.7863L33.1832 8.25017Z" stroke="#03A300" stroke-width="1.5"/>
<path d="M17.1875 36.1875V39.3125M15.625 37.75H18.75" stroke="#03A300" stroke-width="1.5" stroke-linecap="round"/>
</svg>
