<?xml version="1.0" encoding="UTF-8"?>
<svg version="1.1" xmlns="http://www.w3.org/2000/svg" width="800" height="534">
<path d="M0 0 C264 0 528 0 800 0 C800 176.22 800 352.44 800 534 C536 534 272 534 0 534 C0 357.78 0 181.56 0 0 Z " fill="#0038A5" transform="translate(0,0)"/>
<path d="M0 0 C264 0 528 0 800 0 C800 58.74 800 117.48 800 178 C536 178 272 178 0 178 C0 119.26 0 60.52 0 0 Z " fill="#D52A1E" transform="translate(0,356)"/>
<path d="M0 0 C264 0 528 0 800 0 C800 58.74 800 117.48 800 178 C536 178 272 178 0 178 C0 119.26 0 60.52 0 0 Z " fill="#FEFEFE" transform="translate(0,0)"/>
</svg>
