<?xml version="1.0" encoding="UTF-8"?>
<svg version="1.1" xmlns="http://www.w3.org/2000/svg" width="1200" height="600">
<path d="M0 0 C396 0 792 0 1200 0 C1200 198 1200 396 1200 600 C804 600 408 600 0 600 C0 402 0 204 0 0 Z " fill="#FFFFFF" transform="translate(0,0)"/>
<path d="M0 0 C396 0 792 0 1200 0 C1200 67.32 1200 134.64 1200 204 C804 204 408 204 0 204 C0 136.68 0 69.36 0 0 Z " fill="#308738" transform="translate(0,396)"/>
<path d="M0 0 C396 0 792 0 1200 0 C1200 63.36 1200 126.72 1200 192 C804 192 408 192 0 192 C0 128.64 0 65.28 0 0 Z " fill="#3081F7" transform="translate(0,0)"/>
<path d="M0 0 C396 0 792 0 1200 0 C1200 3.96 1200 7.92 1200 12 C804 12 408 12 0 12 C0 8.04 0 4.08 0 0 Z " fill="#EE162E" transform="translate(0,396)"/>
<path d="M0 0 C396 0 792 0 1200 0 C1200 3.96 1200 7.92 1200 12 C804 12 408 12 0 12 C0 8.04 0 4.08 0 0 Z " fill="#EE162E" transform="translate(0,192)"/>
<path d="M0 0 C0 0.66 0 1.32 0 2 C-0.6084375 2.12375 -1.216875 2.2475 -1.84375 2.375 C-20.01452969 6.65047757 -35.96685071 17.05107873 -46 33 C-55.74527157 49.83870482 -60.53520496 68.02517003 -56.12109375 87.484375 C-55.03660553 91.45862178 -53.58886103 95.19967082 -52 99 C-51.25556641 100.81757813 -51.25556641 100.81757813 -50.49609375 102.671875 C-42.28587828 120.79369999 -27.07338687 132.51231784 -9 140 C-5.94007835 140.95819711 -3.17936668 141.54580476 0 142 C-0.33 142.66 -0.66 143.32 -1 144 C-21.91493404 144.75748252 -41.70784928 141.20158522 -57.5625 126.5 C-59.41400303 124.69967375 -61.2064608 122.85966046 -63 121 C-63.66386719 120.36707031 -64.32773438 119.73414063 -65.01171875 119.08203125 C-77.05823933 106.81894401 -82.30936814 88.16246741 -82.5 71.4375 C-82.28454321 52.5614656 -75.04593905 34.85999778 -61.63671875 21.54296875 C-60.76660156 20.70378906 -59.89648438 19.86460938 -59 19 C-58.36707031 18.33613281 -57.73414062 17.67226563 -57.08203125 16.98828125 C-41.83090798 2.00649349 -20.27921618 -0.7547375 0 0 Z " fill="#FBFCFE" transform="translate(178,24)"/>
<path d="M0 0 C0.66 0 1.32 0 2 0 C2.66 2.97 3.32 5.94 4 9 C7.3 9 10.6 9 14 9 C14 9.66 14 10.32 14 11 C12.03852126 12.38938077 10.03833424 13.7260411 8 15 C8.33 18.3 8.66 21.6 9 25 C7.948125 24.29875 6.89625 23.5975 5.8125 22.875 C2.78188284 21.09533142 2.78188284 21.09533142 -0.6875 21.625 C-1.8321875 22.305625 -1.8321875 22.305625 -3 23 C-4.98 23.99 -4.98 23.99 -7 25 C-6.67 21.7 -6.34 18.4 -6 15 C-6.99 14.38125 -7.98 13.7625 -9 13.125 C-9.99 12.42375 -10.98 11.7225 -12 11 C-12 10.34 -12 9.68 -12 9 C-8.7 9 -5.4 9 -2 9 C-1.34 6.03 -0.68 3.06 0 0 Z " fill="#EBF2FE" transform="translate(383,82)"/>
<path d="M0 0 C2.46278801 2.46278801 2.99771255 4.70676982 4 8 C7.3 8.33 10.6 8.66 14 9 C9.375 13.875 9.375 13.875 6 15 C6.99 18.3 7.98 21.6 9 25 C5 23 5 23 2 21 C-1.37494032 21.32660713 -3.42357133 22.88364787 -6 25 C-6.66 24.67 -7.32 24.34 -8 24 C-7.34 21.03 -6.68 18.06 -6 15 C-7.155 14.195625 -8.31 13.39125 -9.5 12.5625 C-10.68653894 11.73616038 -11.8588092 10.88791631 -13 10 C-13 9.67 -13 9.34 -13 9 C-9.37 9 -5.74 9 -2 9 C-1.34 6.03 -0.68 3.06 0 0 Z " fill="#ECF3FE" transform="translate(441,82)"/>
<path d="M0 0 C2.76223278 2.76223278 2.57856291 5.20706617 3 9 C6.63 9 10.26 9 14 9 C9.25 13.875 9.25 13.875 7 15 C7.66 18.3 8.32 21.6 9 25 C5 23 5 23 2 21 C-1.37494032 21.32660713 -3.42357133 22.88364787 -6 25 C-6.66 24.67 -7.32 24.34 -8 24 C-7.34 21.03 -6.68 18.06 -6 15 C-7.155 14.195625 -8.31 13.39125 -9.5 12.5625 C-10.68653894 11.73616038 -11.8588092 10.88791631 -13 10 C-13 9.67 -13 9.34 -13 9 C-9.7 8.67 -6.4 8.34 -3 8 C-2.01 5.36 -1.02 2.72 0 0 Z " fill="#EDF4FE" transform="translate(326,82)"/>
<path d="M0 0 C2 1 2 1 2.6328125 2.84765625 C3.08854167 4.8984375 3.54427083 6.94921875 4 9 C7.3 9 10.6 9 14 9 C11.66666667 11.33333333 9.33333333 13.66666667 7 16 C7.19890456 18.23344065 7.19890456 18.23344065 7.875 20.625 C8.07867187 21.44226563 8.28234375 22.25953125 8.4921875 23.1015625 C8.65976562 23.72804687 8.82734375 24.35453125 9 25 C8.0925 24.34 7.185 23.68 6.25 23 C3.06824185 20.65060172 3.06824185 20.65060172 -1 21 C-3.73219193 22.91859167 -3.73219193 22.91859167 -6 25 C-6.66 24.67 -7.32 24.34 -8 24 C-7.34 21.03 -6.68 18.06 -6 15 C-6.99 14.195625 -7.98 13.39125 -9 12.5625 C-9.99 11.716875 -10.98 10.87125 -12 10 C-12 9.67 -12 9.34 -12 9 C-8.7 9 -5.4 9 -2 9 C-1.34 6.03 -0.68 3.06 0 0 Z " fill="#F2F7FE" transform="translate(268,140)"/>
<path d="M0 0 C2.12508244 3.18762365 2.5020163 5.26512223 3 9 C6.3 9 9.6 9 13 9 C11.7934375 10.11375 11.7934375 10.11375 10.5625 11.25 C7.63196797 14.21175858 7.63196797 14.21175858 7 18 C7.588562 20.354248 8.24592899 22.69342986 9 25 C6.50638429 23.79618552 4.31856917 22.54571278 2 21 C-1.97617113 21.31390825 -4.70155506 22.83245047 -8 25 C-7.34 21.7 -6.68 18.4 -6 15 C-7.155 14.195625 -8.31 13.39125 -9.5 12.5625 C-10.68653894 11.73616038 -11.8588092 10.88791631 -13 10 C-13 9.67 -13 9.34 -13 9 C-9.7 9 -6.4 9 -3 9 C-2.01 6.03 -1.02 3.06 0 0 Z " fill="#F1F7FE" transform="translate(211,140)"/>
<path d="M0 0 C2.76223278 2.76223278 2.57856291 5.20706617 3 9 C6.63 9 10.26 9 14 9 C11.74259377 11.33524782 9.7194239 13.18705073 7 15 C7.33 17.97 7.66 20.94 8 24 C4 22 4 22 2.015625 20.7265625 C-0.03472389 19.73059515 -0.03472389 19.73059515 -2.140625 20.8984375 C-2.83671875 21.38570312 -3.5328125 21.87296875 -4.25 22.375 C-5.4875 23.24125 -6.725 24.1075 -8 25 C-7.34 21.7 -6.68 18.4 -6 15 C-7.155 14.195625 -8.31 13.39125 -9.5 12.5625 C-10.68653894 11.73616038 -11.8588092 10.88791631 -13 10 C-13 9.67 -13 9.34 -13 9 C-9.7 8.67 -6.4 8.34 -3 8 C-2.01 5.36 -1.02 2.72 0 0 Z " fill="#F2F7FE" transform="translate(326,140)"/>
<path d="M0 0 C2.76223278 2.76223278 2.57856291 5.20706617 3 9 C6.63 9 10.26 9 14 9 C12.824375 9.86625 12.824375 9.86625 11.625 10.75 C8.44186465 13.36394722 8.44186465 13.36394722 7 17 C7.45270512 19.76949016 8.18987157 22.29957191 9 25 C6.03 23.35 3.06 21.7 0 20 C-2.64 21.65 -5.28 23.3 -8 25 C-7.34 21.7 -6.68 18.4 -6 15 C-7.155 14.195625 -8.31 13.39125 -9.5 12.5625 C-10.68653894 11.73616038 -11.8588092 10.88791631 -13 10 C-13 9.67 -13 9.34 -13 9 C-9.7 9 -6.4 9 -3 9 C-2.01 6.03 -1.02 3.06 0 0 Z " fill="#F2F7FE" transform="translate(326,25)"/>
<path d="M0 0 C2.46278801 2.46278801 2.99771255 4.70676982 4 8 C7.3 8.33 10.6 8.66 14 9 C11.74259377 11.33524782 9.7194239 13.18705073 7 15 C7.66 18.3 8.32 21.6 9 25 C6.03 23.35 3.06 21.7 0 20 C-1.98 21.65 -3.96 23.3 -6 25 C-6.66 24.67 -7.32 24.34 -8 24 C-7.34 21.03 -6.68 18.06 -6 15 C-7.155 14.195625 -8.31 13.39125 -9.5 12.5625 C-10.68653894 11.73616038 -11.8588092 10.88791631 -13 10 C-13 9.67 -13 9.34 -13 9 C-9.37 9 -5.74 9 -2 9 C-1.855625 7.88625 -1.71125 6.7725 -1.5625 5.625 C-1 2 -1 2 0 0 Z " fill="#F3F7FE" transform="translate(441,140)"/>
<path d="M0 0 C0.66 0 1.32 0 2 0 C2.66 2.97 3.32 5.94 4 9 C7.3 9 10.6 9 14 9 C9.25 13.875 9.25 13.875 7 15 C7.66 18.3 8.32 21.6 9 25 C6.69 23.35 4.38 21.7 2 20 C-1.11198065 21.49836105 -4.0534615 23.19933758 -7 25 C-6.34 21.37 -5.68 17.74 -5 14 C-6.32 13.34 -7.64 12.68 -9 12 C-9.99 11.01 -10.98 10.02 -12 9 C-8.7 9 -5.4 9 -2 9 C-1.34 6.03 -0.68 3.06 0 0 Z " fill="#F2F7FE" transform="translate(383,140)"/>
<path d="M0 0 C0.66 0 1.32 0 2 0 C2.66 2.97 3.32 5.94 4 9 C7.3 9 10.6 9 14 9 C12.37660195 10.70884005 10.70680947 12.37446717 9 14 C8.34 14 7.68 14 7 14 C7.66 17.3 8.32 20.6 9 24 C7.68 23.34 6.36 22.68 5 22 C3.33859237 21.32033324 1.67299959 20.65061095 0 20 C-0.78375 20.66 -1.5675 21.32 -2.375 22 C-5 24 -5 24 -7 24 C-6.67 20.7 -6.34 17.4 -6 14 C-6.99 13.360625 -7.98 12.72125 -9 12.0625 C-9.99 11.381875 -10.98 10.70125 -12 10 C-12 9.67 -12 9.34 -12 9 C-8.7 9 -5.4 9 -2 9 C-1.34 6.03 -0.68 3.06 0 0 Z " fill="#F3F7FE" transform="translate(383,25)"/>
<path d="M0 0 C0.66 0.33 1.32 0.66 2 1 C2.6328125 3.06640625 2.6328125 3.06640625 3.125 5.5625 C3.29257812 6.38878906 3.46015625 7.21507813 3.6328125 8.06640625 C3.75398438 8.70449219 3.87515625 9.34257813 4 10 C6.97 10 9.94 10 13 10 C11.37660195 11.70884005 9.70680947 13.37446717 8 15 C7.34 15 6.68 15 6 15 C6.99 18.3 7.98 21.6 9 25 C7.948125 24.29875 6.89625 23.5975 5.8125 22.875 C2.78188284 21.09533142 2.78188284 21.09533142 -0.6875 21.625 C-1.8321875 22.305625 -1.8321875 22.305625 -3 23 C-4.98 23.99 -4.98 23.99 -7 25 C-6.67 21.7 -6.34 18.4 -6 15 C-7.155 14.195625 -8.31 13.39125 -9.5 12.5625 C-10.68653894 11.73616038 -11.8588092 10.88791631 -13 10 C-13 9.67 -13 9.34 -13 9 C-9.37 9 -5.74 9 -2 9 C-1.34 6.03 -0.68 3.06 0 0 Z " fill="#F0F6FE" transform="translate(268,82)"/>
<path d="M0 0 C2 1 2 1 2.6328125 2.84765625 C3.08854167 4.8984375 3.54427083 6.94921875 4 9 C7.3 9 10.6 9 14 9 C12.824375 9.86625 12.824375 9.86625 11.625 10.75 C8.44186465 13.36394722 8.44186465 13.36394722 7 17 C7.45270512 19.76949016 8.18987157 22.29957191 9 25 C6.03 23.35 3.06 21.7 0 20 C-2.64 21.65 -5.28 23.3 -8 25 C-6.515 19.555 -6.515 19.555 -5 14 C-7.475 13.01 -7.475 13.01 -10 12 C-10.66 11.01 -11.32 10.02 -12 9 C-8.7 9 -5.4 9 -2 9 C-1.855625 7.88625 -1.71125 6.7725 -1.5625 5.625 C-1 2 -1 2 0 0 Z " fill="#F3F8FE" transform="translate(441,25)"/>
</svg>
